<svg width="199" height="174" viewBox="0 0 199 174" fill="none" xmlns="http://www.w3.org/2000/svg">
<path d="M33.4061 151.757C33.7653 151.757 34.1245 151.757 34.4838 151.757H34.843H35.2022C35.9206 151.757 36.639 151.757 37.3574 152.115C38.0758 152.474 38.435 152.474 38.7942 153.192C39.1534 153.55 39.5126 153.909 39.8718 154.627C40.231 155.344 40.231 155.703 40.231 156.421C40.231 157.138 40.231 157.497 39.8718 158.214C39.8718 158.932 39.5126 159.291 39.1534 160.008C38.435 161.084 37.7166 162.161 36.9982 162.878C36.639 163.237 35.9206 163.596 35.5614 163.955C35.2022 164.313 34.4838 164.672 34.1245 165.031C33.4061 165.031 33.0469 165.39 32.3285 165.39C31.6101 165.39 31.2509 165.748 30.5325 165.748C29.4549 165.748 28.3773 165.39 27.6588 165.031C26.9404 164.313 26.5812 163.596 26.5812 162.52C26.5812 162.161 26.5812 161.802 26.5812 161.802C26.5812 161.443 26.9404 161.443 26.9404 161.084C27.2996 160.726 27.2996 160.726 27.6588 160.367C28.018 160.367 28.0181 160.008 28.3773 160.008C28.7365 160.008 29.4549 160.008 29.4549 160.367C29.8141 160.726 29.8141 161.084 29.8141 161.802C29.8141 162.161 29.8141 162.161 29.8141 162.52C29.8141 162.878 29.8141 162.878 29.4549 162.878L29.0957 163.237L28.7365 163.596C28.7365 163.596 28.3773 163.596 28.3773 163.955H28.0181C28.0181 163.955 28.018 163.955 27.6588 163.955C27.6588 163.955 28.0181 163.955 28.0181 164.313C28.3773 164.313 28.3773 164.313 28.7365 164.672C29.0957 164.672 29.0957 164.672 29.4549 164.672C29.8141 164.672 30.1733 164.672 30.5325 164.313C30.8917 164.313 31.2509 163.955 31.9693 163.596C32.3285 163.237 32.6877 162.878 33.0469 162.878C33.4061 162.52 33.7653 162.161 34.1245 161.802C34.4838 161.443 34.843 161.084 35.2022 160.367C35.5614 160.008 35.9206 159.291 35.9206 158.932C36.2798 158.573 36.2798 157.856 36.2798 157.497C36.2798 157.138 36.2798 156.421 36.2798 156.062C36.2798 155.344 36.2798 154.986 35.9206 154.627C35.9206 154.268 35.5614 153.909 35.2022 153.55C34.4838 152.833 33.7653 152.474 32.6877 152.474C32.3285 152.474 31.9693 152.474 31.9693 152.474C31.6101 152.474 31.2509 152.474 31.2509 152.833C30.8917 152.833 30.5325 153.192 30.5325 153.192C30.1733 153.192 30.1733 153.55 29.8141 153.55C29.8141 153.909 29.4549 154.268 29.4549 154.268L29.0957 154.986C29.0957 155.344 28.7365 155.344 28.7365 155.344L28.0181 156.421C28.7365 157.856 28.3773 158.573 28.0181 159.291C27.6588 160.008 26.9404 160.367 26.5812 161.084C25.8628 161.443 25.1444 161.802 24.426 162.52C23.7076 162.878 22.9892 163.596 21.9116 163.955C20.4747 164.672 18.6787 165.39 17.2419 165.748C15.4458 166.107 14.009 166.466 12.213 166.466C11.1354 166.466 10.417 166.466 9.69856 166.466C8.98014 166.466 7.90253 166.107 7.18412 166.107C6.4657 166.107 5.74729 165.748 5.02888 165.39C4.31047 165.031 3.95126 164.672 3.23285 164.672C2.87365 164.313 2.15523 163.955 1.79603 163.596C1.43682 163.237 1.07762 162.878 0.718412 162.161C0.359206 161.802 0.359206 161.084 0 160.726C0 159.649 0 158.932 0 158.573C0 157.856 0 157.497 0.359206 156.779C0.718412 156.062 0.718412 155.703 1.07762 154.986C1.43682 154.268 1.79603 153.909 2.51444 153.55C2.87365 153.192 3.59206 152.474 4.31047 152.115C5.02888 151.757 5.74729 151.398 6.4657 151.039C7.18412 150.68 7.90253 150.322 8.62094 150.322C9.33935 149.963 10.417 149.963 11.1354 149.604C11.8538 149.604 12.9314 149.245 13.6498 149.245C14.009 149.245 14.7274 149.245 15.0866 149.245C15.4458 149.245 15.8051 149.245 16.5235 149.245C16.8827 148.887 16.8827 148.169 17.2419 147.81C17.6011 147.452 17.9603 146.734 18.3195 146.375C18.6787 146.016 19.3971 145.299 19.7563 144.94C20.4747 144.581 20.8339 144.223 21.5523 143.864C22.9892 143.146 24.426 142.429 26.222 142.07C26.9404 141.711 28.018 141.711 28.7365 141.711C29.4549 141.711 30.5325 141.711 31.2509 141.711C32.6877 141.711 34.4838 142.07 36.9982 143.146C37.7166 143.505 38.0758 143.505 38.7942 143.864C39.1534 143.864 39.8718 144.223 40.231 144.223C40.5903 144.223 40.9495 144.223 40.9495 144.581C41.3087 144.581 41.3087 144.581 41.3087 144.581C41.6679 144.581 42.0271 144.581 42.0271 144.223C42.3863 144.223 42.3863 143.864 42.7455 143.505H43.1047V143.864V144.223C43.1047 144.223 43.1047 144.581 42.7455 144.581C42.3863 144.94 42.0271 145.299 41.6679 145.299C41.3087 145.299 41.3087 145.658 40.9495 145.658C40.5903 145.658 40.5903 146.016 40.231 146.016C39.8718 146.016 39.8718 146.016 39.5126 146.016C39.1534 146.016 39.1534 146.016 38.7942 146.016C38.435 146.016 37.7166 146.016 36.9982 145.658C36.639 145.658 36.639 145.658 36.2798 145.299C36.2798 145.299 36.2798 145.299 36.2798 145.658V146.016C36.2798 146.016 35.9206 146.016 35.9206 146.375C35.5614 146.375 35.5614 146.375 35.2022 146.734C34.843 146.734 34.843 147.093 34.4838 147.093C34.1245 147.093 34.1245 147.451 33.7653 147.451C33.4061 147.451 33.4061 147.81 33.0469 148.169C32.6877 148.528 32.6877 148.528 32.3285 148.887C31.9693 149.245 31.9693 149.604 31.6101 149.963C32.6877 149.604 32.6877 150.322 32.3285 150.68C31.9693 151.039 31.9693 151.398 31.6101 152.115V152.474H31.9693C32.3285 152.474 32.3285 152.474 32.6877 152.115C33.0469 151.757 33.0469 151.757 33.4061 151.757ZM36.639 145.299C35.9206 144.94 35.2022 144.94 34.1245 144.581C32.6877 144.223 31.6101 143.864 30.5325 143.505C29.4549 143.146 28.3773 143.146 27.6588 143.146C27.2996 143.146 26.5812 143.146 26.222 143.146C25.8628 143.146 25.1444 143.505 24.426 143.505C23.7076 143.864 23.3484 143.864 22.9892 144.223C22.63 144.581 21.9116 144.94 21.5523 144.94C21.1931 145.299 20.4747 145.658 20.1155 146.016C19.7563 146.375 19.3971 146.734 19.0379 147.093C18.6787 147.452 18.3195 147.81 17.9603 148.169C17.6011 148.528 17.6011 148.887 17.2419 149.245C17.6011 149.245 17.6011 149.245 17.9603 149.604C18.3195 149.604 18.6787 149.604 18.6787 149.963C19.7563 150.322 20.8339 150.68 21.5523 151.039C22.2708 151.398 22.9892 151.757 23.7076 152.115V152.474V152.833H23.3484C23.3484 152.833 23.3484 152.833 22.9892 152.833C21.5523 151.757 19.3971 151.039 17.2419 150.322V150.68V151.039C17.2419 151.398 17.2419 151.757 17.2419 152.115C17.2419 152.474 17.2419 152.833 17.6011 153.192V153.55C17.6011 153.55 17.6011 153.55 17.2419 153.55H16.8827C16.8827 153.55 16.8827 153.55 16.5235 153.192C16.5235 153.192 16.5235 152.833 16.1643 152.833V152.474V152.115V151.757V151.398V151.039V150.68H15.8051H15.4458C15.0866 150.68 14.7274 150.68 14.7274 150.68C13.2906 150.68 11.8538 151.039 10.0578 151.398C9.33935 151.757 8.62094 151.757 7.90253 152.115C7.18412 152.474 6.4657 152.833 6.1065 153.192C5.38809 153.55 5.02888 153.909 4.66967 154.627C4.31047 154.986 3.95126 155.703 3.59206 156.062C3.23285 156.421 2.87365 157.138 2.87365 157.497C2.87365 157.856 2.51444 158.573 2.51444 158.932C2.51444 160.008 2.87365 160.726 3.23285 161.443C3.59206 161.802 3.59206 162.161 3.95126 162.52C4.31047 162.878 4.66967 163.237 5.02888 163.237C5.38809 163.596 6.1065 163.596 6.4657 163.955C7.18412 164.313 7.54332 164.313 8.26173 164.313C8.98014 164.313 9.69856 164.672 10.417 164.672C11.1354 164.672 11.8538 164.672 12.5722 164.672C14.009 164.672 15.4458 164.313 16.8827 164.313C18.3195 163.955 19.3971 163.596 20.4747 162.878C21.5523 162.52 22.63 161.443 23.7076 160.367C24.7852 159.291 25.5036 158.214 26.222 156.779L26.9404 155.703C26.9404 155.344 27.2996 154.986 27.6588 154.627L28.3773 153.55C28.3773 153.192 28.7365 152.833 28.7365 152.474C29.0957 152.115 29.0957 151.757 29.4549 151.398C29.8141 151.039 29.8141 150.68 30.1733 150.322C30.5325 149.963 30.5325 149.604 30.8917 149.245C31.2509 148.887 31.2509 148.528 31.6101 148.528C31.6101 148.169 31.9693 148.169 31.9693 147.81C31.9693 147.81 32.3285 147.452 32.6877 147.093C33.0469 147.093 33.0469 146.734 33.4061 146.734C33.7653 146.734 33.7653 146.375 34.1245 146.375C34.4838 146.375 34.4838 146.016 34.843 146.016C35.2022 146.016 35.2022 145.658 35.5614 145.658C35.9206 145.658 35.9206 145.658 36.2798 145.299C36.2798 145.299 36.2798 145.299 36.639 145.299ZM155.177 148.887C155.177 150.322 154.818 151.757 154.099 152.833C153.381 154.268 152.303 155.344 150.507 156.421C149.07 157.497 147.634 158.573 145.838 158.932C144.401 159.649 142.605 159.649 141.168 159.649H140.809H140.449C139.731 161.443 138.653 163.237 137.576 164.672C136.498 166.107 135.061 167.901 133.625 168.977C132.188 170.412 130.392 171.489 128.955 172.206C127.518 172.924 126.081 173.282 124.644 173.282C123.208 173.282 122.13 172.924 121.412 172.206C121.412 171.847 121.412 171.847 121.412 171.847C121.412 171.847 121.771 171.489 122.13 171.489C122.489 171.847 122.848 171.847 123.208 171.847C123.567 171.847 123.926 171.847 124.644 171.847C125.363 171.847 126.44 171.847 127.159 171.489C127.877 171.13 128.955 170.771 129.673 170.054C130.392 169.336 131.469 168.619 132.188 167.901C132.906 167.183 133.625 166.107 134.343 165.031C134.702 164.313 135.421 163.237 136.139 162.161C136.498 161.443 136.857 160.726 137.217 160.008L139.731 154.986C140.09 154.268 140.449 153.909 140.449 153.192C140.809 152.474 141.168 151.757 141.527 151.039C141.886 150.322 142.245 149.963 142.605 149.604C142.964 148.887 143.682 148.169 144.042 147.451C144.401 146.734 145.119 146.016 145.478 145.658C145.838 145.299 146.197 144.94 146.556 144.581C146.915 144.223 147.274 144.223 147.274 144.223C147.634 144.223 147.634 144.223 147.634 144.223C147.634 144.223 147.993 144.223 147.993 144.581L147.634 144.94L147.274 145.299C146.915 146.016 145.838 147.093 144.76 149.245C143.682 151.398 142.245 154.268 140.809 157.856C143.682 157.856 146.197 156.779 148.711 153.909C149.789 152.833 150.866 151.398 151.585 150.322C152.303 149.245 152.662 147.81 152.662 146.734C152.662 145.299 152.303 144.223 151.226 143.146C150.148 142.429 148.711 142.07 146.556 142.07C145.838 142.07 144.76 142.07 144.042 142.07C136.498 143.146 131.11 144.581 126.44 147.451C127.159 147.093 127.518 146.375 128.236 146.016C130.032 144.94 131.829 143.864 133.625 143.146C135.421 142.429 137.576 141.711 139.372 141.353C141.168 140.994 143.323 140.635 145.119 140.635C151.944 142.429 155.177 144.581 155.177 148.887Z" fill="#1D1D1B"/>
<path d="M95.9077 158.573C96.6261 159.649 98.063 159.649 99.1406 159.291C97.3445 161.084 96.2669 162.519 94.4709 163.596C93.7525 163.955 93.0341 164.313 93.0341 163.955C92.6749 163.596 93.0341 163.596 93.0341 162.878C93.7525 161.802 94.1117 161.084 94.8301 160.008C95.1893 158.932 94.4709 157.497 92.6749 157.138C93.0341 157.856 92.3157 158.932 91.5972 160.367L90.8788 161.802C90.5196 162.878 90.1604 163.596 91.238 164.672C91.9565 165.39 93.0341 165.39 94.1117 164.672C96.2669 163.237 98.4222 161.802 100.218 158.932C100.577 158.573 100.218 158.214 100.218 157.856C99.4998 157.856 99.1406 158.214 98.4222 157.856C98.0629 157.497 98.0629 157.138 98.4222 156.421C99.4998 153.909 101.296 152.833 102.733 153.55C103.092 153.909 102.733 154.268 102.373 155.344L100.218 160.008C99.1406 163.237 99.4998 164.672 100.937 165.39C102.733 166.107 104.169 165.39 105.247 164.672C105.606 164.672 105.606 164.313 105.606 164.313C105.606 163.955 105.606 163.955 105.247 163.596C104.888 163.955 104.888 163.955 104.529 164.313C103.451 165.031 102.373 165.39 102.014 165.031C101.296 164.313 101.655 163.237 102.373 161.802L105.606 154.627C104.529 152.833 102.014 152.833 99.859 153.55C96.6261 154.268 94.8301 156.779 95.9077 158.573ZM157.691 153.192V152.833H158.05H158.41H158.769H159.128H159.487C159.487 152.833 159.846 152.833 159.846 153.192C159.846 153.192 160.206 153.192 160.206 153.55L160.565 153.909C160.565 153.909 160.565 154.268 160.924 154.268V154.627V154.985C160.924 155.344 160.924 155.344 160.924 155.703C160.924 156.062 160.924 156.421 160.924 156.421C160.924 156.779 160.924 157.138 160.565 157.497C160.565 157.856 160.206 158.214 160.206 158.573C160.206 158.932 159.846 159.291 159.846 159.649C159.846 160.008 159.487 160.367 159.487 160.726C159.487 161.084 159.128 161.443 159.128 161.443C159.128 161.802 158.769 162.161 158.769 162.161C158.769 162.519 158.41 162.519 158.41 162.878C158.41 163.237 158.05 163.237 158.05 163.596C158.05 163.955 157.691 163.955 157.691 163.955H158.05C158.05 163.955 158.41 163.955 158.41 163.596L158.769 163.237L159.128 162.878L159.487 162.519L159.846 162.161L160.206 161.802C160.565 161.443 160.924 161.084 160.924 160.726C161.283 160.367 161.642 160.008 161.642 159.649C162.002 159.291 162.002 158.932 162.361 158.573C162.72 158.214 162.72 157.856 163.079 157.497C163.438 157.138 163.438 156.779 163.798 156.421C164.157 156.062 164.157 155.703 164.516 155.703L165.594 154.268C165.594 153.909 165.953 153.909 165.953 153.909L166.312 153.55C166.312 153.55 166.312 153.55 166.671 153.192C166.671 153.192 166.671 153.192 167.03 152.833H167.39H167.749H168.108H168.467C168.467 152.833 168.826 152.833 168.826 153.192C169.186 153.192 169.186 153.55 169.545 153.55C169.545 153.909 169.186 154.268 169.186 154.627L168.467 156.062C168.108 156.421 168.108 157.138 167.749 157.497C167.39 158.214 167.03 158.573 166.671 159.291C166.312 160.008 165.953 160.726 165.594 161.443C165.234 162.161 164.516 162.878 164.157 163.596C163.798 164.313 163.079 165.031 162.72 165.748C162.361 166.466 161.642 167.183 161.283 167.542C160.924 168.26 160.206 168.618 159.846 168.977C159.487 169.336 159.128 169.695 158.41 170.054C158.05 170.412 157.691 170.771 156.973 170.771C156.613 171.13 156.254 171.13 155.895 171.489C155.536 171.489 155.177 171.847 154.817 171.847C154.458 171.847 154.099 171.847 153.74 171.847C153.381 171.847 153.021 171.847 152.662 171.847C152.303 171.847 151.944 171.847 151.944 171.489C151.585 171.489 151.585 171.13 151.225 171.13C150.866 171.13 150.866 170.771 150.507 170.771L150.148 170.412C150.148 170.412 149.789 170.053 149.789 169.695C149.789 169.336 149.429 169.336 149.429 168.977C149.429 168.977 149.429 168.618 149.07 168.618V168.26V167.901V167.542H149.429C149.429 167.542 149.429 167.542 149.429 167.901C149.429 167.901 149.429 167.901 149.429 168.26C149.429 168.26 149.429 168.618 149.789 168.618C149.789 168.618 149.789 168.977 150.148 168.977L150.507 169.336L150.866 169.695L151.225 170.054C151.225 170.054 151.585 170.054 151.944 170.412C152.303 170.412 152.303 170.412 152.662 170.412C153.021 170.412 153.021 170.412 153.381 170.412C153.74 170.412 154.099 170.412 154.458 170.412C154.817 170.412 155.177 170.412 155.536 170.054C155.895 170.054 156.254 169.695 156.613 169.695C156.973 169.336 157.332 169.336 157.332 168.977C157.691 168.618 158.05 168.618 158.05 168.26C158.41 167.901 158.41 167.901 158.769 167.542C159.128 167.183 159.128 166.825 159.487 166.825C159.846 166.466 159.846 166.107 160.206 166.107C160.565 165.748 160.565 165.748 160.924 165.39C161.283 165.031 161.283 165.031 161.283 164.672C161.283 164.313 161.642 164.313 161.642 163.955C161.642 163.596 162.002 163.596 162.002 163.237C162.002 162.878 162.361 162.878 162.361 162.519C162.361 162.161 162.72 162.161 162.72 161.802C162.72 161.443 163.079 161.443 163.079 161.084C163.079 160.726 163.438 160.726 163.438 160.367L163.798 159.649L164.157 159.291L164.516 158.932L164.157 159.291C164.157 159.649 163.798 159.649 163.798 160.008C163.438 160.367 163.438 160.367 163.079 160.726C162.72 161.084 162.72 161.084 162.361 161.443C161.642 161.084 161.642 161.443 161.283 161.443C160.924 161.802 160.924 161.802 160.565 162.161C160.206 162.519 160.206 162.519 159.846 162.878C159.487 163.237 159.487 163.237 159.128 163.596C158.769 163.955 158.769 163.955 158.41 164.313C158.05 164.313 158.05 164.672 157.691 164.672C157.332 164.672 157.332 165.031 156.973 165.031C156.613 165.031 156.613 165.031 156.254 165.031H155.895H155.536H155.177C155.177 165.031 155.177 165.031 154.817 165.031C154.817 165.031 154.817 165.031 154.458 165.031C154.458 165.031 154.458 165.031 154.099 164.672C154.099 164.672 154.099 164.672 154.458 164.313C154.458 164.313 154.458 163.955 154.817 163.955C154.817 163.596 155.177 163.596 155.177 163.237C155.177 162.878 155.536 162.878 155.536 162.519C155.536 162.161 155.895 161.802 155.895 161.443C155.895 161.084 156.254 160.726 156.254 160.367C156.254 160.008 156.613 159.649 156.613 159.291C156.613 158.932 156.973 158.573 156.973 158.214C156.973 157.856 157.332 157.497 157.332 157.138C157.332 156.779 157.332 156.421 157.691 156.062C157.691 155.703 157.691 155.344 157.691 154.985C157.691 154.627 157.691 154.268 157.691 154.268V153.909C158.05 153.909 158.05 153.55 157.691 153.192C158.05 153.55 158.05 153.55 157.691 153.192ZM177.447 153.192C177.807 153.192 178.166 153.192 178.884 153.192C179.243 153.192 179.603 153.192 179.962 153.192C180.321 153.192 180.321 153.192 180.68 153.55C181.039 153.55 181.039 153.909 181.039 153.909C181.039 153.909 181.399 154.268 181.399 154.627C181.399 154.985 181.399 155.344 181.399 155.344C181.399 155.703 181.039 156.062 181.039 156.062C180.68 156.421 180.68 156.779 180.321 156.779C179.962 157.138 179.603 157.497 179.243 157.497C178.884 157.856 178.525 158.214 177.807 158.214C177.447 158.214 177.447 158.573 177.088 158.573H177.447C177.807 158.573 177.807 158.573 178.166 158.573H178.525C178.884 158.573 179.243 158.573 179.243 158.573C179.603 158.573 179.603 158.573 179.962 158.932L180.321 159.291C180.321 159.291 180.321 159.649 180.68 160.008C180.68 160.367 180.68 160.726 180.68 160.726C180.68 161.084 180.68 161.443 180.321 161.443C180.321 161.802 179.962 162.161 179.962 162.161C179.962 162.519 179.603 162.519 179.603 162.878C179.243 163.237 179.243 163.237 178.884 163.596C178.525 163.955 178.525 163.955 178.166 164.313C177.807 164.313 177.447 164.672 177.447 164.672C177.088 164.672 176.729 165.031 176.729 165.031C176.37 165.031 176.011 165.031 176.011 165.39C175.651 165.39 175.292 165.39 175.292 165.39C174.933 165.39 174.933 165.39 174.574 165.39C174.215 165.39 174.215 165.39 173.855 165.39C173.496 165.39 173.496 165.39 173.137 165.031C172.778 165.031 172.778 164.672 172.419 164.672C172.059 164.672 172.059 164.313 171.7 164.313C171.7 164.313 171.341 163.955 171.341 163.596C171.341 163.237 170.982 163.237 170.982 162.878C170.982 162.519 170.982 162.519 170.982 162.161V161.802L171.341 162.161C171.7 162.519 171.7 162.519 172.059 162.878C172.419 162.878 172.419 163.237 172.778 163.237C173.137 163.237 173.137 163.237 173.496 163.596C173.855 163.596 174.215 163.596 174.215 163.596C174.574 163.596 174.933 163.596 174.933 163.596C175.292 163.596 175.292 163.596 175.651 163.237C176.011 163.237 176.011 163.237 176.37 162.878C176.729 162.878 176.729 162.519 177.088 162.519C177.447 162.519 177.447 162.161 177.447 162.161L177.807 161.802L178.166 161.443C178.166 161.443 178.166 161.084 178.525 161.084V160.726V160.367C178.525 160.367 178.166 160.367 177.807 160.367H177.447H177.088H176.729C176.729 160.367 176.37 160.367 176.37 160.726C176.37 160.726 176.011 160.726 176.011 161.084L175.651 161.443V161.084C175.651 161.084 175.651 161.084 175.651 160.726C175.651 160.726 175.651 160.726 175.651 160.367L176.011 160.008L176.37 159.649L176.729 159.291C177.088 158.932 177.447 158.932 177.447 158.573C177.807 158.214 177.807 158.214 178.166 157.856C178.525 157.497 178.525 157.497 178.884 157.138C178.884 156.779 179.243 156.779 179.243 156.421C179.243 156.062 179.603 156.062 179.603 155.703C179.603 155.344 179.603 155.344 179.603 154.985C179.603 154.985 179.603 154.985 179.603 154.627C179.603 154.627 179.603 154.627 179.243 154.627C179.243 154.627 179.243 154.627 178.884 154.627H178.525C178.525 154.627 178.166 154.627 178.166 154.985L177.807 155.344L177.447 155.703L177.088 156.062C177.088 156.062 176.729 156.421 176.729 156.779C176.729 157.138 176.37 157.138 176.37 157.497C176.37 157.856 176.011 157.856 176.011 158.214C176.011 158.573 176.011 158.573 175.651 158.932C175.651 159.291 175.651 159.291 175.651 159.649V160.008C175.651 160.008 175.651 160.008 175.292 159.649C175.292 159.649 175.292 159.291 174.933 159.291V158.932V158.573C174.933 158.214 174.933 158.214 174.933 157.856C174.933 157.497 174.933 157.497 175.292 157.138C175.292 156.779 175.651 156.779 175.651 156.421C176.011 156.062 176.011 156.062 176.37 155.703C176.729 155.344 177.088 155.344 177.088 155.344C177.447 155.344 177.807 154.985 178.166 154.985C176.729 153.192 177.088 153.192 177.447 153.192ZM195.048 154.627C194.689 154.627 194.689 154.627 194.689 154.627C194.689 154.627 194.689 154.627 194.33 154.627C194.33 154.627 194.33 154.627 193.971 154.627H193.612H193.252C193.252 154.627 192.893 154.627 192.893 154.985C192.534 154.985 192.534 155.344 192.175 155.344C191.816 155.344 191.816 155.703 191.456 156.062C191.097 156.421 191.097 156.421 190.738 156.779C190.379 157.138 190.02 157.497 190.02 157.856L189.66 158.214C189.66 158.573 189.301 158.573 189.301 158.932C189.301 159.291 188.942 159.291 188.942 159.649C188.942 160.008 188.583 160.008 188.583 160.367C188.583 160.726 188.224 160.726 188.224 161.084C188.224 161.443 187.864 161.443 187.864 161.802C187.864 162.161 187.864 162.161 187.505 162.519C187.505 162.878 187.505 162.878 187.505 163.237C187.505 163.596 187.505 163.596 187.505 163.955V164.313C187.505 164.313 187.505 164.313 187.505 164.672H187.864C187.864 164.672 188.224 164.672 188.224 164.313L188.583 163.955L188.942 163.596C188.942 163.237 189.301 163.237 189.301 162.878C189.301 162.519 189.66 162.519 189.66 162.161C189.66 161.802 190.02 161.802 190.02 161.443C190.02 161.084 190.379 161.084 190.379 160.726C190.379 160.367 190.738 160.367 190.738 160.008C190.738 159.649 191.097 159.649 191.097 159.291L191.456 158.573L191.816 158.214L192.175 157.856V157.497L192.534 156.779L192.893 156.062L193.252 155.703C193.252 155.703 193.252 155.344 193.612 155.344L195.048 154.627ZM195.048 154.627C195.408 154.268 195.408 154.268 195.408 154.268L195.767 153.909L196.126 153.55C196.126 153.55 196.485 153.55 196.485 153.192H196.845C197.204 153.192 197.204 153.192 197.563 153.192C197.922 153.192 197.922 153.192 198.281 153.55L198.641 153.909C198.641 154.268 199 154.268 199 154.627C199 154.627 199 154.627 198.641 154.985L198.281 155.344C198.281 155.703 197.922 155.703 197.922 156.062C197.922 156.421 197.563 156.421 197.204 156.779L196.845 157.138C196.845 157.497 196.485 157.497 196.485 157.856C196.485 158.214 196.126 158.214 196.126 158.573C196.126 158.932 195.767 158.932 195.767 159.291C195.767 159.649 195.408 159.649 195.408 160.008C195.408 160.367 195.048 160.726 195.048 160.726C195.048 161.084 194.689 161.443 194.689 161.443C194.689 161.802 194.689 161.802 194.33 162.161C194.33 162.519 194.33 162.519 194.33 162.878C194.33 163.237 194.33 163.237 194.33 163.596V163.955C194.33 163.955 194.33 163.955 194.33 164.313C194.33 164.313 194.33 164.313 194.689 164.313H195.048H195.408C195.408 164.313 195.767 164.313 195.767 163.955C195.767 163.955 196.126 163.596 196.485 163.596C196.845 163.596 196.845 163.237 197.204 162.878C197.563 162.878 197.563 163.237 197.563 163.596C197.563 163.596 197.563 163.955 197.204 163.955C197.204 163.955 196.845 163.955 196.845 164.313C196.485 164.313 196.485 164.672 196.126 164.672C195.767 164.672 195.767 165.031 195.408 165.031C195.048 165.031 195.048 165.031 194.689 165.031C194.33 165.031 193.971 165.031 193.971 165.031C193.612 165.031 193.612 164.672 193.252 164.672C192.893 164.313 192.534 163.596 192.534 162.878C192.534 162.519 192.534 162.519 192.534 162.161C192.534 161.802 192.534 161.802 192.534 161.443C192.534 161.084 192.534 161.084 192.534 160.726C192.534 160.367 192.534 160.367 192.534 160.008L192.175 160.367C192.175 160.726 191.816 160.726 191.816 161.084C191.816 161.443 191.456 161.443 191.456 161.802C191.456 162.161 191.097 162.161 191.097 162.519C191.097 162.878 190.738 162.878 190.738 163.237C190.738 163.596 190.379 163.596 190.02 163.955C189.66 163.955 189.66 164.313 189.301 164.313C188.942 164.313 188.942 164.672 188.583 164.672C188.224 164.672 188.224 165.031 187.864 165.031C187.505 165.031 187.505 165.031 187.146 165.031C186.787 165.031 186.428 165.031 186.428 165.031C186.068 165.031 186.068 164.672 185.709 164.672C185.35 164.313 185.35 164.313 185.35 163.955C185.35 163.596 184.991 163.237 184.991 162.878C184.991 162.519 184.991 162.519 184.991 162.161C184.991 161.802 184.991 161.802 184.991 161.443C184.991 161.084 184.991 161.084 184.991 160.726C184.991 160.367 184.991 160.367 184.991 160.008C184.991 159.649 185.35 159.291 185.35 158.932C185.35 158.573 185.709 158.214 186.068 157.856C186.428 157.497 186.428 157.138 186.787 156.779C187.146 156.421 187.146 156.062 187.505 155.703C187.864 155.344 188.224 154.985 188.224 154.627C188.583 154.268 188.942 154.268 189.301 153.909C189.66 153.55 190.02 153.55 190.379 153.192C190.738 152.833 191.097 152.833 191.456 152.833C191.816 152.833 192.175 152.474 192.534 152.474C192.893 152.474 193.252 152.474 193.612 152.474H193.971H194.33H194.689C194.689 152.474 194.689 152.474 195.048 152.833C195.048 152.833 195.048 152.833 195.048 153.192C195.048 153.192 195.048 153.192 195.048 153.55C194.689 154.268 194.689 154.268 195.048 154.627C195.048 154.268 195.048 154.268 195.048 154.627ZM54.2399 154.268V154.627V154.985V155.344C54.2399 155.344 54.2399 155.703 53.8806 155.703L53.5214 156.062C53.5214 156.062 53.1622 156.421 52.803 156.421C52.4438 156.421 52.4438 156.779 52.0846 156.779C51.7254 156.779 51.3662 157.138 51.007 157.138C50.6478 157.138 50.2886 157.497 49.9294 157.497C49.5702 157.497 48.8518 157.856 48.4926 157.856C48.1334 157.856 47.4149 158.214 46.6965 158.214C46.6965 158.573 46.3373 158.573 46.3373 158.932C46.3373 159.291 46.3373 159.291 45.9781 159.649C45.9781 160.008 45.9781 160.008 45.6189 160.367C45.6189 160.726 45.6189 160.726 45.6189 161.084C45.6189 161.443 45.6189 161.443 45.6189 161.802C45.6189 162.161 45.6189 162.161 45.6189 162.519V162.878V163.237C45.6189 163.237 45.6189 163.596 45.9781 163.596C45.9781 163.596 45.9781 163.596 46.3373 163.955H46.6965H47.0557C48.8518 163.955 49.9294 163.237 51.007 162.161C51.007 162.161 51.007 162.161 51.007 162.519C51.007 162.519 51.007 162.519 51.007 162.878C50.6478 163.596 48.4926 164.313 47.7741 164.672C47.0557 165.031 46.3373 165.031 45.2597 165.031C44.9005 165.031 44.9005 165.031 44.5413 165.031C44.1821 165.031 44.1821 165.031 43.8229 164.672C43.4637 164.672 43.4637 164.313 43.1045 164.313L42.7453 163.955C42.7453 163.596 42.3861 163.596 42.3861 163.237C42.3861 162.878 42.3861 162.878 42.0269 162.519C42.0269 162.161 42.0269 161.802 42.0269 161.443C42.0269 161.084 42.0269 160.726 42.0269 160.367C42.0269 160.008 42.3861 159.649 42.3861 159.291C42.3861 158.932 42.7453 158.573 43.1045 158.214C43.4637 157.856 43.4637 157.497 43.8229 157.138C44.1821 156.779 44.1821 156.421 44.5413 156.062C44.9005 155.703 45.2597 155.344 45.6189 154.985C45.9781 154.627 46.3373 154.268 46.6965 154.268C47.0557 153.909 47.4149 153.909 47.7741 153.55C48.1334 153.192 48.4926 153.192 48.8518 153.192C49.211 153.192 49.5702 152.833 49.9294 152.833C50.2886 152.833 50.6478 152.833 51.007 152.833C51.3662 152.833 51.3662 152.833 51.7254 152.833C52.0846 152.833 52.0846 152.833 52.4438 152.833C52.803 152.833 53.1622 153.192 53.1622 153.55C54.2399 153.909 54.2399 153.909 54.2399 154.268ZM47.4149 158.214C47.7741 158.214 47.7741 158.214 48.1334 158.214C48.4926 158.214 48.8518 157.856 49.211 157.856C49.5702 157.856 49.9294 157.497 50.2886 157.497C50.6478 157.497 50.6478 157.138 51.007 156.779C51.3662 156.421 51.3662 156.421 51.7254 156.062C51.7254 155.703 52.0846 155.703 52.0846 155.344C52.0846 154.985 52.4438 154.985 52.4438 154.627C52.4438 154.268 52.4438 154.268 52.4438 153.909H52.0846C52.0846 153.909 51.7254 153.909 51.7254 154.268C51.3662 154.268 51.3662 154.627 51.007 154.627C50.6478 154.627 50.6478 154.985 50.2886 154.985C49.9294 155.344 49.9294 155.344 49.9294 155.703C49.9294 156.062 49.5702 156.062 49.5702 156.421C49.5702 156.779 49.211 156.779 49.211 157.138C49.211 157.497 48.8518 157.497 48.8518 157.856C47.4149 157.856 47.4149 157.856 47.4149 158.214ZM66.0936 153.192C66.0936 152.833 66.0936 152.833 66.0936 153.192L65.7344 152.833H66.0936C66.4528 152.833 66.8121 152.833 67.1713 152.833C67.5305 152.833 67.8897 152.833 67.8897 153.192C68.2489 153.192 68.2489 153.55 68.6081 153.55C68.6081 153.909 68.9673 153.909 68.9673 154.268C68.9673 154.627 68.9673 154.627 68.9673 154.985C68.9673 155.344 68.9673 155.344 68.9673 155.703C68.9673 156.062 68.9673 156.062 68.6081 156.421C68.6081 156.779 68.2489 157.138 68.2489 157.497C68.2489 157.856 67.8897 158.214 67.8897 158.573C67.8897 158.932 67.5305 159.291 67.5305 159.649C67.5305 160.008 67.1713 160.367 67.1713 160.367C67.1713 160.726 66.8121 161.084 66.8121 161.084C66.8121 161.443 66.4528 161.443 66.4528 161.802C66.4528 162.161 66.4528 162.161 66.0936 162.519C66.0936 162.878 66.0936 162.878 66.0936 163.237C66.0936 163.596 66.0936 163.596 66.0936 163.955V164.313C66.0936 164.313 66.0936 164.672 66.4528 164.672H66.8121H67.1713H67.5305C67.5305 164.672 67.8897 164.672 67.8897 164.313C67.8897 164.313 68.2489 164.313 68.2489 163.955C68.6081 163.596 68.9673 163.596 68.9673 163.237C69.3265 163.237 69.3265 163.596 69.3265 163.955C69.3265 163.955 69.3265 164.313 68.9673 164.313C68.9673 164.313 68.9673 164.313 68.6081 164.313C68.6081 165.031 68.2489 165.031 68.2489 165.031C67.8897 165.031 67.8897 165.39 67.5305 165.39C67.1713 165.39 67.1713 165.39 66.8121 165.748C66.4528 165.748 66.4528 165.748 66.0936 165.748C65.7344 165.748 65.7344 165.748 65.3752 165.748C65.016 165.748 65.016 165.748 64.6568 165.39C64.6568 165.39 64.6568 165.031 64.2976 165.031L63.9384 164.672L63.5792 164.313C63.5792 163.955 63.5792 163.955 63.5792 163.596C63.5792 163.237 63.5792 162.878 63.5792 162.519C63.5792 162.161 63.5792 161.802 63.9384 161.084C63.9384 160.726 64.2976 160.008 64.6568 159.649C64.6568 159.649 64.6568 159.291 65.016 159.291C64.6568 159.649 64.6568 159.649 64.2976 160.008C63.9384 160.367 63.9384 160.367 63.5792 160.726C63.22 161.084 63.22 161.443 62.8608 161.443C62.5016 161.802 62.5016 162.161 62.1424 162.161C61.7832 162.519 61.7832 162.519 61.424 162.878C61.0648 163.237 61.0648 163.237 60.7056 163.596C60.3463 163.955 60.3464 163.955 59.9871 164.313C59.6279 164.672 59.6279 164.672 59.2687 164.672C58.9095 164.672 58.9095 165.031 58.5503 165.031C58.1911 165.031 58.1911 165.031 57.8319 165.031H57.4727H57.1135C57.1135 165.031 56.7543 165.031 56.7543 164.672C56.7543 164.672 56.3951 164.672 56.3951 164.313C56.3951 164.313 56.3951 163.955 56.0359 163.955V163.596V163.237C56.0359 163.237 56.0359 162.878 56.0359 162.519C56.0359 162.161 56.0359 162.161 56.3951 161.802C56.3951 161.443 56.3951 161.443 56.7543 161.084C56.7543 160.726 57.1135 160.726 57.1135 160.367C57.1135 160.008 57.4727 160.008 57.4727 159.649C57.4727 159.291 57.8319 159.291 57.8319 158.932C57.8319 158.573 58.1911 158.573 58.1911 158.214C58.1911 157.856 58.5503 157.856 58.5503 157.856C58.5503 157.856 58.5503 157.497 58.9095 157.497V157.138V156.779V156.421H59.2687C59.6279 156.421 59.6279 156.421 59.6279 156.779C59.6279 156.779 59.9871 156.779 59.9871 157.138C59.9871 157.138 60.3463 157.138 60.3463 157.497L60.7056 157.856C60.7056 158.214 61.0648 158.573 61.0648 158.932V159.291V159.649C61.0648 159.649 61.0648 160.008 60.7056 160.367C60.7056 160.367 60.7056 160.726 60.3463 160.726L59.9871 161.084L59.6279 161.443L59.2687 161.802L58.9095 162.161C58.9095 162.161 58.9095 162.519 58.5503 162.519C58.5503 162.519 58.5503 162.878 58.1911 162.878C58.1911 162.878 58.1911 162.878 58.1911 163.237C58.1911 163.237 58.1911 163.237 58.5503 163.237C58.5503 163.237 58.9095 163.237 58.9095 162.878L59.2687 162.519C59.6279 162.519 59.6279 162.161 59.9871 162.161C60.3464 161.802 60.3463 161.802 60.7056 161.443C61.0648 161.084 61.0648 161.084 61.424 160.726C61.7832 160.367 61.7832 160.367 62.1424 160.008C62.5016 159.649 62.5016 159.649 62.8608 159.291C63.22 158.932 63.22 158.573 63.5792 158.573C63.9384 158.214 63.9384 157.856 64.2976 157.856C64.6568 157.497 64.6568 157.138 65.016 157.138C65.3752 156.779 65.3752 156.779 65.7344 156.421C65.7344 156.062 66.0936 156.062 66.0936 155.703C66.0936 155.344 66.4528 155.344 66.4528 154.985C66.4528 154.627 66.8121 154.627 66.8121 154.268C66.8121 153.909 66.8121 153.909 66.8121 153.909V153.55V153.192C66.8121 153.192 66.8121 153.192 66.8121 152.833C66.0936 153.55 66.0936 153.192 66.0936 153.192ZM83.3355 154.627C82.9763 154.627 82.9763 154.627 82.9763 154.627C82.9763 154.627 82.9763 154.627 82.6171 154.627C82.6171 154.627 82.6171 154.627 82.2579 154.627H81.8987H81.5395C81.5395 154.627 81.1803 154.627 81.1803 154.985C80.8211 154.985 80.8211 155.344 80.4619 155.344C80.1027 155.344 80.1027 155.703 79.7435 156.062C79.3843 156.421 79.3843 156.421 79.025 156.779C78.6658 157.138 78.3066 157.497 78.3066 157.856L77.9474 158.214C77.9474 158.573 77.5882 158.573 77.5882 158.932C77.5882 159.291 77.229 159.291 77.229 159.649C77.229 160.008 76.8698 160.008 76.8698 160.367C76.8698 160.726 76.5106 160.726 76.5106 161.084C76.5106 161.443 76.1514 161.443 76.1514 161.802C76.1514 162.161 76.1514 162.161 75.7922 162.519C75.7922 162.878 75.7922 162.878 75.7922 163.237C75.7922 163.596 75.7922 163.596 75.7922 163.955V164.313C75.7922 164.313 75.7922 164.313 75.7922 164.672H76.1514C76.1514 164.672 76.5106 164.672 76.5106 164.313L76.8698 163.955L77.229 163.596C77.229 163.237 77.5882 163.237 77.5882 162.878C77.5882 162.519 77.9474 162.519 77.9474 162.161C77.9474 161.802 78.3066 161.802 78.3066 161.443C78.3066 161.084 78.6658 161.084 78.6658 160.726C78.6658 160.367 79.025 160.367 79.025 160.008C79.025 159.649 79.3843 159.649 79.3843 159.291L79.7435 158.573L80.1027 158.214L80.4619 157.856V157.497L80.8211 156.779L81.1803 156.062L81.5395 155.703C81.5395 155.703 81.5395 155.344 81.8987 155.344L83.3355 154.627ZM83.3355 154.627C82.9763 154.627 83.3355 154.627 83.3355 154.627V154.627ZM83.3355 154.627C83.6947 154.268 83.6947 154.268 83.6947 154.268L84.0539 153.909L84.4131 153.55C84.4131 153.55 84.7723 153.55 84.7723 153.192H85.1315C85.4908 153.192 85.4907 153.192 85.85 153.192C86.2092 153.192 86.2092 153.192 86.5684 153.55L86.9276 153.909C86.9276 154.268 87.2868 154.268 87.2868 154.627C87.2868 154.627 87.2868 154.627 86.9276 154.985L86.5684 155.344C86.5684 155.703 86.2092 155.703 86.2092 156.062C86.2092 156.421 85.85 156.421 85.4907 156.779L85.1315 157.138C85.1315 157.497 84.7723 157.497 84.7723 157.856C84.7723 158.214 84.4131 158.214 84.4131 158.573C84.4131 158.932 84.0539 158.932 84.0539 159.291C84.0539 159.649 83.6947 159.649 83.6947 160.008C83.6947 160.367 83.3355 160.726 83.3355 160.726C83.3355 161.084 82.9763 161.443 82.9763 161.443C82.9763 161.802 82.9763 161.802 82.6171 162.161C82.6171 162.519 82.6171 162.519 82.6171 162.878C82.6171 163.237 82.6171 163.237 82.6171 163.596V163.955C82.6171 163.955 82.6171 163.955 82.6171 164.313C82.6171 164.313 82.6171 164.313 82.9763 164.313H83.3355H83.6947C83.6947 164.313 84.0539 164.313 84.0539 163.955L84.4131 163.596C84.7723 163.237 85.1315 163.237 85.1315 162.878C85.4908 162.878 85.4907 163.237 85.4907 163.596C85.4907 163.596 85.4908 163.955 85.1315 163.955L84.7723 164.313C84.4131 164.313 84.4131 164.672 84.0539 164.672C83.6947 164.672 83.6947 165.031 83.3355 165.031C82.9763 165.031 82.9763 165.031 82.6171 165.031C82.2579 165.031 81.8987 165.031 81.8987 165.031C81.5395 165.031 81.5395 164.672 81.1803 164.672C80.8211 164.313 80.4619 163.596 80.4619 162.878C80.4619 162.519 80.4619 162.519 80.4619 162.161C80.4619 161.802 80.4619 161.802 80.4619 161.443C80.4619 161.084 80.4619 161.084 80.4619 160.726C80.4619 160.367 80.4619 160.367 80.4619 160.008L80.1027 160.367C80.1027 160.726 79.7435 160.726 79.7435 161.084C79.7435 161.443 79.3843 161.443 79.3843 161.802C79.3843 162.161 79.025 162.161 79.025 162.519C79.025 162.878 78.6658 162.878 78.6658 163.237C78.6658 163.596 78.3066 163.596 77.9474 163.955C77.5882 163.955 77.5882 164.313 77.229 164.313C76.8698 164.313 76.8698 164.672 76.5106 164.672C76.1514 164.672 76.1514 165.031 75.7922 165.031C75.433 165.031 75.433 165.031 75.0738 165.031C74.7146 165.031 74.3554 165.031 74.3554 165.031C73.9962 165.031 73.9962 164.672 73.637 164.672C73.2778 164.313 73.2778 164.313 73.2778 163.955C73.2778 163.596 72.9185 163.237 72.9185 162.878C72.9185 162.519 72.9185 162.519 72.9185 162.161C72.9185 161.802 72.9185 161.802 72.9185 161.443C72.9185 161.084 72.9185 161.084 72.9185 160.726C72.9185 160.367 72.9185 160.367 72.9185 160.008C72.9185 159.649 73.2778 159.291 73.2778 158.932C73.2778 158.573 73.637 158.214 73.9962 157.856C74.3554 157.497 74.3554 157.138 74.7146 156.779C75.0738 156.421 75.0738 156.062 75.433 155.703C75.7922 155.344 76.1514 154.985 76.1514 154.627C76.5106 154.268 76.8698 154.268 77.229 153.909C77.5882 153.55 77.9474 153.55 78.3066 153.192C78.6658 152.833 79.025 152.833 79.3843 152.833C79.7435 152.833 80.1027 152.474 80.4619 152.474C80.8211 152.474 81.1803 152.474 81.5395 152.474H81.8987H82.2579H82.6171C82.6171 152.474 82.6171 152.474 82.9763 152.833C82.9763 152.833 82.9763 152.833 82.9763 153.192C82.9763 153.192 82.9763 153.192 82.9763 153.55C83.3355 154.268 83.3355 154.268 83.3355 154.627C83.3355 154.268 83.3355 154.268 83.3355 154.627Z" fill="#1D1D1B"/>
<path fill-rule="evenodd" clip-rule="evenodd" d="M147.993 3.94632C142.246 -0.717597 140.45 -7.1656e-05 137.576 -7.1656e-05C144.76 -0.717597 149.071 6.0989 148.352 16.503C148.352 18.2968 147.993 19.0144 147.634 20.4494C147.275 22.2432 147.634 22.9608 149.071 22.602L154.459 21.8845L155.177 17.2205C156.255 12.1979 153.74 8.25148 147.993 3.94632Z" fill="#009FE3"/>
<path fill-rule="evenodd" clip-rule="evenodd" d="M151.585 24.0369C151.585 27.9833 153.021 31.9297 155.895 35.5173C154.817 32.6472 155.177 28.7009 157.691 23.3194C158.769 21.1668 158.05 19.7318 156.613 19.7318C154.817 19.7318 151.944 19.373 151.225 20.0905C150.507 20.4493 149.789 21.5256 148.711 22.9606C150.866 21.1668 151.944 21.1668 151.585 24.0369Z" fill="#009FE3"/>
<path fill-rule="evenodd" clip-rule="evenodd" d="M150.148 111.934C141.886 103.682 129.314 76.4165 121.052 91.8433C121.411 90.0494 122.13 88.9732 124.285 86.8206C125.722 85.0268 126.44 84.668 128.236 83.9505C135.061 81.4391 143.323 90.0494 148.352 96.1484C151.226 99.736 158.05 113.01 162.002 109.064C162.361 108.705 162.361 108.705 162.72 108.346C159.487 113.728 155.177 117.315 150.148 111.934Z" fill="#009FE3"/>
<path fill-rule="evenodd" clip-rule="evenodd" d="M137.576 60.272C157.332 85.0267 163.798 91.4844 161.643 107.988V108.346L162.002 108.705C162.002 108.346 162.361 107.988 162.361 107.629C163.798 104.4 164.157 102.606 164.875 97.5834C166.312 91.8432 164.157 81.7978 160.924 76.7751C150.148 60.272 139.013 51.6617 132.906 38.0287C128.955 28.7009 125.004 5.38132 135.421 0.358643C132.547 1.43493 124.285 7.5339 122.489 16.503C118.179 33.7236 129.314 50.9442 137.576 60.272Z" fill="#009FE3"/>
<path fill-rule="evenodd" clip-rule="evenodd" d="M118.538 111.934C110.276 103.682 97.7036 76.4165 89.4419 91.8433C89.8011 90.0494 90.5195 88.9732 92.6747 86.8206C94.1116 85.0268 94.83 84.668 96.626 83.9505C103.451 81.4391 111.713 90.0494 116.742 96.1484C119.615 99.736 126.44 113.01 130.391 109.064C130.751 108.705 130.751 108.705 131.11 108.346C127.877 113.728 123.566 117.315 118.538 111.934Z" fill="#009FE3"/>
<path fill-rule="evenodd" clip-rule="evenodd" d="M86.9282 111.934C78.6665 103.682 66.0943 76.4165 57.8325 91.8433C58.1917 90.0494 58.9101 88.9732 61.0654 86.8206C62.5022 85.0268 63.2206 84.668 65.0166 83.9505C71.8415 81.4391 80.1033 90.0494 85.1322 96.1484C88.0058 99.736 94.8307 113.01 98.782 109.064C99.1412 108.705 99.1412 108.705 99.5004 108.346C96.2675 113.728 92.3163 117.315 86.9282 111.934Z" fill="#009FE3"/>
<path d="M56.7544 95.4309C54.24 95.0721 51.7256 94.7134 49.2111 94.3546C42.7454 93.6371 36.2797 92.9195 29.814 91.4845C53.8808 107.988 78.3068 118.033 101.655 121.621C125.722 125.208 149.07 122.338 170.623 112.652L167.031 111.216L167.39 110.14L172.419 112.293L173.856 113.01L172.419 113.728C150.148 124.132 126.081 127.361 101.296 123.414C76.87 119.468 51.3663 108.705 25.8627 91.1257L22.6299 88.9731L26.2219 90.0494C33.7653 92.202 41.3086 92.9195 49.2111 93.9958C51.7256 94.3546 54.24 94.7134 56.7544 95.0721V95.4309Z" fill="#009FE3"/>
</svg>
