<svg width="18" height="19" viewBox="0 0 18 19" fill="none" xmlns="http://www.w3.org/2000/svg">
<path opacity="0.49" d="M3.80007 18.2C3.20007 18.2 2.80007 18.1 2.50007 17.8L0.600067 15.6C0.200067 15.1 0.200067 14.4 0.700067 13.9L3.40007 11.8C3.60007 11.6 3.90007 11.5 4.20007 11.5C4.50007 11.5 4.80007 11.6 5.00007 11.8L5.90007 13.2L6.10007 13.1C6.40007 13 7.40007 12.7 9.70007 10.4C12.0001 8.10005 12.4001 7.00005 12.4001 6.80005L12.5001 6.60005L11.3001 5.60005C10.8001 5.10005 10.8001 4.40005 11.2001 3.90005L13.3001 1.20005C13.6001 1.00005 13.9001 0.800049 14.2001 0.800049C14.6001 0.800049 14.9001 0.900049 15.1001 1.10005L17.3001 3.00005C18.2001 3.90005 17.3001 6.50005 17.1001 7.20005C16.2001 9.40005 14.8001 11.6 13.0001 13.4C10.5001 15.9 8.10007 17.1 6.80007 17.5C6.10007 17.8 4.90007 18.2 3.80007 18.2ZM1.30007 14.6V14.7L1.20007 14.9L1.30007 15.1L3.20007 17.3H3.30007C3.40007 17.4 3.60007 17.4 3.90007 17.4C5.20007 17.4 8.90007 16.3 12.4001 12.8C16.1001 9.10005 17.3001 4.70005 16.9001 3.80005V3.70005L14.6001 1.70005L14.1001 1.80005H14.0001L11.7001 4.80005L13.1001 5.70005C13.4001 5.90005 13.5001 6.20005 13.5001 6.50005C13.5001 7.40005 12.5001 9.00005 10.5001 11C8.00007 13.5 6.70007 14 6.10007 14C5.70007 14 5.40007 13.9 5.30007 13.6L4.30007 12.2L1.30007 14.6Z" fill="white"/>
</svg>
