<svg width="9" height="18" viewBox="0 0 9 18" fill="none" xmlns="http://www.w3.org/2000/svg">
<path fill-rule="evenodd" clip-rule="evenodd" d="M1.8 3.89998C1.8 4.29998 1.8 6.19998 1.8 6.19998H0V9.09998H1.8V17.6H5.6V9.09998H8.1C8.1 9.09998 8.3 7.69998 8.5 6.19998C8.2 6.19998 5.6 6.19998 5.6 6.19998C5.6 6.19998 5.6 4.49998 5.6 4.19998C5.6 3.99998 6 3.59998 6.4 3.59998C6.8 3.59998 7.7 3.59998 8.5 3.59998C8.5 3.19998 8.5 1.89998 8.5 0.599976C7.4 0.599976 6.2 0.599976 5.7 0.599976C1.7 0.599976 1.8 3.49998 1.8 3.89998Z" fill="#5F7B90"/>
</svg>
