<svg width="20" height="19" viewBox="0 0 20 19" fill="none" xmlns="http://www.w3.org/2000/svg">
<path d="M10.1 14.5C7.3 14.5 5 12.2 5 9.40005C5 6.60005 7.3 4.30005 10.1 4.30005C12.9 4.30005 15.2 6.60005 15.2 9.40005C15.2 12.2 12.9 14.5 10.1 14.5ZM10.1 5.90005C8.2 5.90005 6.6 7.50005 6.6 9.40005C6.6 11.3 8.2 12.9 10.1 12.9C12 12.9 13.6 11.3 13.6 9.40005C13.5 7.40005 12 5.90005 10.1 5.90005Z" fill="#5F7B90"/>
<path d="M17.1997 4.4C17.1997 5.2 16.5997 5.8 15.7997 5.8C14.9997 5.8 14.3997 5.2 14.3997 4.4C14.2997 3.6 14.9997 3 15.7997 3C16.5997 3 17.1997 3.6 17.1997 4.4Z" fill="#5F7B90"/>
<path d="M15.8998 18.2H4.89981C2.59981 18.2 0.799805 16.4 0.799805 14.1V4.1C0.799805 1.8 2.59981 0 4.89981 0H15.8998C18.1998 0 19.9998 1.8 19.9998 4.1V14.1C19.9998 16.4 18.1998 18.2 15.8998 18.2ZM4.7998 1.4C3.2998 1.4 2.0998 2.6 2.0998 4.1V14.1C2.0998 15.6 3.2998 16.8 4.7998 16.8H15.7998C17.2998 16.8 18.4998 15.6 18.4998 14.1V4.1C18.4998 2.6 17.2998 1.4 15.7998 1.4H4.7998Z" fill="#5F7B90"/>
</svg>
