<svg width="177" height="79" viewBox="0 0 177 79" fill="none" xmlns="http://www.w3.org/2000/svg">
<g clip-path="url(#clip0)">
<path d="M90.1998 2.59998V28.9H84.8998V18.2H75.0998V28.9H69.7998V2.59998H75.0998V13.4H84.8998V2.59998H90.1998Z" fill="#F0F2F7"/>
<path d="M94.5 19.9C94.5 14.3 99 10.6 104.1 10.6C109.2 10.6 113.7 14.3 113.7 19.9C113.7 25.5 109.2 29.2 104.1 29.2C99 29.2 94.5 25.5 94.5 19.9ZM108.6 19.9C108.6 17.1 106.6 15.2 104.1 15.2C101.6 15.2 99.6 17.1 99.6 19.9C99.6 22.6 101.6 24.5 104.1 24.5C106.6 24.5 108.6 22.7 108.6 19.9Z" fill="#F0F2F7"/>
<path d="M134.7 23.7C134.7 26.1 133.2 28.9 128.3 28.9H117.5V11.1H128C131.7 11.1 133.6 13.2 133.6 15.6C133.6 16.7 133.2 18.8 131 19.4C133.2 19.7 134.7 21.5 134.7 23.7ZM122.6 15.5V18H127.4C128.3 18 128.8 17.6 128.8 16.8C128.8 16 128.3 15.5 127.4 15.5H122.6ZM129.6 22.9C129.6 22.1 129 21.4 127.7 21.4H122.6V24.3H127.7C129 24.3 129.6 23.8 129.6 22.9Z" fill="#F0F2F7"/>
<path d="M157 11.1V28.9H152V26.7C150.7 28.5 148.3 29.2999 146.3 29.2999C141.7 29.2999 137.6 25.8 137.6 20C137.6 14.3 141.8 10.7 146.3 10.7C148.4 10.7 150.8 11.5 152 13.3V11.2H157V11.1ZM151.9 19.9C151.9 17.2 149.6 15.3 147.3 15.3C144.8 15.3 142.7 17.2 142.7 19.9C142.7 22.5 144.8 24.5 147.3 24.5C149.7 24.5 151.9 22.6 151.9 19.9Z" fill="#F0F2F7"/>
<path d="M176.2 11.1V28.9H171.2V22.8H170.7L166.5 28.9H160.7L165.5 22.6C162.4 21.8 161.2 19.7 161.2 17.1C161.2 14.1 163.4 11.1 168 11.1H176.2ZM171.2 19.3V15.6H168.6C167 15.6 166.4 16.5 166.4 17.4C166.4 18.3 167 19.3 168.7 19.3H171.2Z" fill="#F0F2F7"/>
<path d="M89.0998 40.7999C89.0998 45.0999 86.4998 49.2999 80.4998 49.2999H75.0998V58.5H69.7998V32.2H80.4998C86.4998 32.2 89.0998 36.4999 89.0998 40.7999ZM83.7998 40.7999C83.7998 38.8999 82.7998 36.9 80.3998 36.9H75.1998V44.5999H80.3998C82.7998 44.6999 83.7998 42.6999 83.7998 40.7999Z" fill="#F0F2F7"/>
<path d="M109.6 40.7L98.6 67.1999H93.3L97.5 56.7999L90.5 40.7H96L100.2 51L104.3 40.7H109.6Z" fill="#F0F2F7"/>
<path d="M125.5 53.2999C125.5 56.5 122.3 58.9 117.4 58.9C114.3 58.9 112 57.9 110.4 55.9L113.6 53.4C114.6 54.4 116 54.7999 117.4 54.7999C119.4 54.7999 120.5 53.7 120.5 52.7C120.5 51.6 119.4 50.7 117.6 50.7H115.2V47.5999H117C118.9 47.5999 119.7 46.8 119.7 45.9C119.7 45 118.7 44.2999 117.3 44.2999C116 44.2999 114.6 44.7999 113.8 45.5999L111.2 42.7C113 41.3 115.1 40.2 118 40.2C121.8 40.2 124.8 42.2 124.8 45.4C124.8 46.7 124 47.9999 122.4 48.7999C124.5 49.5999 125.5 51.2999 125.5 53.2999Z" fill="#F0F2F7"/>
<path d="M147.9 40.6999V58.4999H142.9V56.2999C141.6 58.0999 139.2 58.8999 137.2 58.8999C132.6 58.8999 128.5 55.3999 128.5 49.5999C128.5 43.8999 132.7 40.2999 137.2 40.2999C139.3 40.2999 141.7 41.0999 142.9 42.8999V40.7999H147.9V40.6999ZM142.7 49.5999C142.7 46.8999 140.4 44.9999 138.1 44.9999C135.6 44.9999 133.5 46.8999 133.5 49.5999C133.5 52.1999 135.6 54.1999 138.1 54.1999C140.5 54.1999 142.7 52.2999 142.7 49.5999Z" fill="#F0F2F7"/>
<path d="M73.9999 76.8V78.5H73.2999V77.4H70.0999V78.5H69.3999V76.8H69.4999C70.0999 76.8 70.3999 76.3 70.3999 75.3V72.2H73.5999V76.8H73.9999ZM71.0999 75.4C71.0999 76 70.9999 76.5 70.6999 76.9H72.8999V72.9H71.0999V75.4Z" fill="#8DAE3E"/>
<path d="M81.3001 76.8V77.4H78.1001V72.1H81.2001V72.7H78.8001V74.4H80.9001V75H78.8001V76.6H81.3001V76.8Z" fill="#8DAE3E"/>
<path d="M89.2001 76C89.2001 76.8 88.6001 77.5 87.7001 77.5H85.6001V72.2H87.6001C88.5001 72.2 89.0001 72.7 89.0001 73.5C89.0001 74 88.8001 74.4 88.3001 74.6C88.8001 74.8 89.2001 75.4 89.2001 76ZM86.2001 72.9V74.4H87.5001C88.0001 74.4 88.2001 74.1 88.2001 73.6C88.2001 73.2 87.9001 72.8 87.5001 72.8H86.2001V72.9ZM88.5001 75.9C88.5001 75.4 88.2001 75 87.6001 75H86.3001V76.8H87.6001C88.1001 76.8 88.5001 76.4 88.5001 75.9Z" fill="#8DAE3E"/>
<path d="M96.4998 76.8V77.4H93.2998V72.1H96.3998V72.7H93.9998V74.4H96.0998V75H93.9998V76.6H96.4998V76.8Z" fill="#8DAE3E"/>
<path d="M104.2 72.2V77.5H103.5V72.9H101.7V75.6C101.7 76.9 101.1 77.5 100.1 77.5H100V76.9H100.1C100.7 76.9 101 76.5 101 75.7V72.3H104.2V72.2Z" fill="#8DAE3E"/>
<path d="M108.4 74.9C108.4 73.4 109.6 72.2 111.1 72.2C112.6 72.2 113.8 73.4 113.8 74.9C113.8 76.4 112.6 77.6 111.1 77.6C109.5 77.6 108.4 76.4 108.4 74.9ZM113 74.9C113 73.8 112.1 72.8 111 72.8C109.9 72.8 109 73.7 109 74.9C109 76 109.9 77 111 77C112.2 76.9 113 76 113 74.9Z" fill="#8DAE3E"/>
<path d="M121.7 72.2V77.5H121V72.9H118.5V77.5H117.8V72.2H121.7Z" fill="#8DAE3E"/>
<path d="M131.5 77.5L131 73.5L129.3 76.9H128.7L127 73.5L126.5 77.5H125.8L126.4 72.2H127L128.9 76.1L130.8 72.2H131.4L132 77.5H131.5Z" fill="#8DAE3E"/>
<path d="M139.6 76.8V77.4H136.4V72.1H139.5V72.7H137.1V74.4H139.2V75H137.1V76.6H139.6V76.8Z" fill="#8DAE3E"/>
<path d="M147.7 72.2V77.5H147V75.2H144.4V77.5H143.7V72.2H144.4V74.5H147V72.2H147.7Z" fill="#8DAE3E"/>
<path d="M155.6 72.8999H154V77.4999H153.3V72.8999H151.7V72.2999H155.6V72.8999Z" fill="#8DAE3E"/>
<path d="M26.6 63.9C22.9 62.7 19.4 61.6 13.1 61.6C8.8 61.5 4.4 62 0 62.8V66.8C3.7 66.1 8.2 65.6 13.1 65.6C20 65.6 23.9 66.9 27.7 68.1C31.5 69.3 35.1 70.5 41.6 70.5C46.2 70.5 50.6 69.8 53.9 69V65C50.4 65.8 46.1 66.4 41.6 66.4C34.6 66.4 30.5 65.1 26.6 63.9Z" fill="#8DAE3E"/>
<path d="M27.8 52.4C31.6 53.6 35.2 54.8 41.7 54.8C46.3 54.8 50.7 54.1 54 53.3V27.1L26.8 0L0 27.1V59C4.4 58.2 8.8 57.8 13.1 57.8C20 57.8 23.9 59.1 27.7 60.3C31.5 61.5 35.1 62.7 41.6 62.7C46.1 62.7 50.5 62 53.9 61.2V57.2C50.5 57.9 46.2 58.6 41.6 58.6C34.6 58.6 30.6 57.3 26.7 56.1V52.1C27.2 52.2 27.5 52.3 27.8 52.4ZM24.5 30.6H29.3V43H24.5V30.6Z" fill="#8DAE3E"/>
<path d="M0 70.8V74.8C3.6 74.1 8.2 73.5 13.1 73.5C19.3 73.5 22.8 74.6 26.5 75.8H26.6V71.7C23.1 70.6 19.3 69.5 13.1 69.5C8.2 69.6 3.7 70.1 0 70.8Z" fill="#8DAE3E"/>
</g>
<defs>
<clipPath id="clip0">
<rect width="176.2" height="78.6" fill="white"/>
</clipPath>
</defs>
</svg>
