<svg width="105" height="126" viewBox="0 0 105 126" fill="none" xmlns="http://www.w3.org/2000/svg">
<g clip-path="url(#clip0)" filter="url(#filter0_d)">
<path d="M52.1 7C29.4 7 11 25.4 11 48.1C11 68 25.1 84.6 43.8 88.4L52.1 108.4L60.4 88.4C79.1 84.6 93.2 68 93.2 48.1C93.2 25.4 74.8 7 52.1 7Z" fill="white" stroke="#8DAE3E" stroke-width="2" stroke-miterlimit="10"/>
<g clip-path="url(#clip1)">
<path d="M34.2999 37.2H32.9999V42.5H30.3999V28H36.0999C39.2999 28 40.6999 30.3 40.6999 32.7C40.6999 34.8 39.5999 36.7 37.0999 37.2L40.8999 42.6H37.8999L34.2999 37.2ZM32.9999 35H35.5999C37.3999 35 38.1999 34 38.1999 32.6C38.1999 31.2 37.3999 30.2 35.9999 30.2H32.9999V35Z" fill="#57353A"/>
<path d="M52.1998 32.7V42.5H49.7998V41C49.2998 42.2 47.6998 42.8 46.6998 42.8C44.1998 42.8 42.7998 41.1 42.7998 38.3V32.7H45.1998V38C45.1998 39.6 46.0998 40.4 47.1998 40.4C48.2998 40.4 49.6998 39.8 49.6998 37.9V32.7H52.1998Z" fill="#57353A"/>
<path d="M63.0002 34.6L57.7002 40.2H63.0002V42.5H54.2002V40.6L59.4002 34.9H54.5002V32.7H63.0002V34.6Z" fill="#57353A"/>
<path d="M75.1001 32.7V42.5H72.7001V41.2C72.0001 42.3 70.6001 42.7 69.4001 42.7C66.8001 42.7 64.6001 40.7 64.6001 37.6C64.6001 34.4 66.8001 32.5 69.4001 32.5C70.6001 32.5 72.0001 33 72.7001 34V32.7H75.1001ZM72.6001 37.6C72.6001 35.9 71.2001 34.8 69.8001 34.8C68.3001 34.8 67.0001 36 67.0001 37.6C67.0001 39.2 68.2001 40.5 69.8001 40.5C71.2001 40.4 72.6001 39.3 72.6001 37.6Z" fill="#57353A"/>
<path d="M22 56.3C22 52.2 25.3 48.9 29.4 48.9C31.8 48.9 33.9 50 35.2 51.7L33.3 53.2C32.3 52 31 51.2 29.4 51.2C26.6 51.2 24.6 53.5 24.6 56.2C24.6 59 26.6 61.2 29.4 61.2C31 61.2 32.3 60.5 33.2 59.3L35.1 60.8C33.8 62.5 31.7 63.6 29.3 63.6C25.3 63.7 22 60.4 22 56.3Z" fill="#57353A"/>
<path d="M46.4 58V63.5H44V58.2C44 56.6 43.1 55.8 42 55.8C40.9 55.8 39.5 56.4 39.5 58.3V63.4H37V48.4H39.4V55.2C39.9 54 41.5 53.5 42.5 53.5C45 53.5 46.4 55.1 46.4 58Z" fill="#57353A"/>
<path d="M58.8999 53.7V63.5H56.4999V62.2C55.7999 63.3 54.3999 63.7 53.1999 63.7C50.5999 63.7 48.3999 61.7 48.3999 58.6C48.3999 55.4 50.5999 53.5 53.1999 53.5C54.3999 53.5 55.7999 54 56.4999 55V53.7H58.8999ZM56.3999 58.6C56.3999 56.9 54.9999 55.8 53.5999 55.8C52.0999 55.8 50.7999 57 50.7999 58.6C50.7999 60.2 51.9999 61.5 53.5999 61.5C55.0999 61.4 56.3999 60.3 56.3999 58.6Z" fill="#57353A"/>
<path d="M61.6001 48.4H64.0001V63.5H61.6001V48.4Z" fill="#57353A"/>
<path d="M76.2001 59.4H68.6001C68.9001 60.8 69.9001 61.5 71.4001 61.5C72.5001 61.5 73.5001 61.1 74.1001 60.3L75.7001 61.5C74.8001 62.9 73.1001 63.7 71.3001 63.7C68.4001 63.7 66.1001 61.6 66.1001 58.6C66.1001 55.5 68.5001 53.5 71.3001 53.5C74.1001 53.5 76.3001 55.5 76.3001 58.5C76.3001 58.8 76.3001 59.1 76.2001 59.4ZM73.9001 57.7C73.8001 56.4 72.7001 55.6 71.4001 55.6C70.1001 55.6 69.0001 56.2 68.7001 57.7H73.9001Z" fill="#57353A"/>
<path d="M83.6002 55.6H81.5002V63.5H79.0002V55.6H77.2002V53.6H79.0002V50H81.4002V53.6H83.5002V55.6H83.6002Z" fill="#57353A"/>
</g>
</g>
<defs>
<filter id="filter0_d" x="0" y="0" width="104.2" height="125.1" filterUnits="userSpaceOnUse" color-interpolation-filters="sRGB">
<feFlood flood-opacity="0" result="BackgroundImageFix"/>
<feColorMatrix in="SourceAlpha" type="matrix" values="0 0 0 0 0 0 0 0 0 0 0 0 0 0 0 0 0 0 127 0" result="hardAlpha"/>
<feOffset dy="4"/>
<feGaussianBlur stdDeviation="5"/>
<feColorMatrix type="matrix" values="0 0 0 0 0 0 0 0 0 0 0 0 0 0 0 0 0 0 0.25 0"/>
<feBlend mode="normal" in2="BackgroundImageFix" result="effect1_dropShadow"/>
<feBlend mode="normal" in="SourceGraphic" in2="effect1_dropShadow" result="shape"/>
</filter>
<clipPath id="clip0">
<rect width="84.2" height="105.1" fill="white" transform="translate(10 6)"/>
</clipPath>
<clipPath id="clip1">
<rect width="61.6" height="35.7" fill="white" transform="translate(22 28)"/>
</clipPath>
</defs>
</svg>
