<svg width="105" height="126" viewBox="0 0 105 126" fill="none" xmlns="http://www.w3.org/2000/svg">
<g clip-path="url(#clip0)" filter="url(#filter0_d)">
<path d="M52.1 7C29.4 7 11 25.4 11 48.1C11 68 25.1 84.6 43.8 88.4L52.1 108.4L60.4 88.4C79.1 84.6 93.2 68 93.2 48.1C93.2 25.4 74.8 7 52.1 7Z" fill="white" stroke="#8DAE3E" stroke-width="2" stroke-miterlimit="10"/>
<g clip-path="url(#clip1)">
<path d="M34.3 64.3C34.4 64.3 34.5 64.3 34.6 64.3H34.7H34.8C35 64.3 35.2 64.3 35.4 64.4C35.6 64.5 35.7 64.5 35.8 64.7C35.9 64.8 36 64.9 36.1 65.1C36.2 65.3 36.2 65.4 36.2 65.6C36.2 65.8 36.2 65.9 36.1 66.1C36.1 66.3 36 66.4 35.9 66.6C35.7 66.9 35.5 67.2 35.3 67.4C35.2 67.5 35 67.6 34.9 67.7C34.8 67.8 34.6 67.9 34.5 68C34.3 68 34.2 68.1 34 68.1C33.8 68.1 33.7 68.2 33.5 68.2C33.2 68.2 32.9 68.1 32.7 68C32.5 67.8 32.4 67.6 32.4 67.3C32.4 67.2 32.4 67.1 32.4 67.1C32.4 67 32.5 67 32.5 66.9C32.6 66.8 32.6 66.8 32.7 66.7C32.8 66.7 32.8 66.6 32.9 66.6C33 66.6 33.2 66.6 33.2 66.7C33.3 66.8 33.3 66.9 33.3 67.1C33.3 67.2 33.3 67.2 33.3 67.3C33.3 67.4 33.3 67.4 33.2 67.4L33.1 67.5L33 67.6C33 67.6 32.9 67.6 32.9 67.7H32.8C32.8 67.7 32.8 67.7 32.7 67.7C32.7 67.7 32.8 67.7 32.8 67.8C32.9 67.8 32.9 67.8 33 67.9C33.1 67.9 33.1 67.9 33.2 67.9C33.3 67.9 33.4 67.9 33.5 67.8C33.6 67.8 33.7 67.7 33.9 67.6C34 67.5 34.1 67.4 34.2 67.4C34.3 67.3 34.4 67.2 34.5 67.1C34.6 67 34.7 66.9 34.8 66.7C34.9 66.6 35 66.4 35 66.3C35.1 66.2 35.1 66 35.1 65.9C35.1 65.8 35.1 65.6 35.1 65.5C35.1 65.3 35.1 65.2 35 65.1C35 65 34.9 64.9 34.8 64.8C34.6 64.6 34.4 64.5 34.1 64.5C34 64.5 33.9 64.5 33.9 64.5C33.8 64.5 33.7 64.5 33.7 64.6C33.6 64.6 33.5 64.7 33.5 64.7C33.4 64.7 33.4 64.8 33.3 64.8C33.3 64.9 33.2 65 33.2 65L33.1 65.2C33.1 65.3 33 65.3 33 65.3L32.8 65.6C33 66 32.9 66.2 32.8 66.4C32.7 66.6 32.5 66.7 32.4 66.9C32.2 67 32 67.1 31.8 67.3C31.6 67.4 31.4 67.6 31.1 67.7C30.7 67.9 30.2 68.1 29.8 68.2C29.3 68.3 28.9 68.4 28.4 68.4C28.1 68.4 27.9 68.4 27.7 68.4C27.5 68.4 27.2 68.3 27 68.3C26.8 68.3 26.6 68.2 26.4 68.1C26.2 68 26.1 67.9 25.9 67.9C25.8 67.8 25.6 67.7 25.5 67.6C25.4 67.5 25.3 67.4 25.2 67.2C25.1 67.1 25.1 66.9 25 66.8C25 66.5 25 66.3 25 66.2C25 66 25 65.9 25.1 65.7C25.2 65.5 25.2 65.4 25.3 65.2C25.4 65 25.5 64.9 25.7 64.8C25.8 64.7 26 64.5 26.2 64.4C26.4 64.3 26.6 64.2 26.8 64.1C27 64 27.2 63.9 27.4 63.9C27.6 63.8 27.9 63.8 28.1 63.7C28.3 63.7 28.6 63.6 28.8 63.6C28.9 63.6 29.1 63.6 29.2 63.6C29.3 63.6 29.4 63.6 29.6 63.6C29.7 63.5 29.7 63.3 29.8 63.2C29.9 63.1 30 62.9 30.1 62.8C30.2 62.7 30.4 62.5 30.5 62.4C30.7 62.3 30.8 62.2 31 62.1C31.4 61.9 31.8 61.7 32.3 61.6C32.5 61.5 32.8 61.5 33 61.5C33.2 61.5 33.5 61.5 33.7 61.5C34.1 61.5 34.6 61.6 35.3 61.9C35.5 62 35.6 62 35.8 62.1C35.9 62.1 36.1 62.2 36.2 62.2C36.3 62.2 36.4 62.2 36.4 62.3C36.5 62.3 36.5 62.3 36.5 62.3C36.6 62.3 36.7 62.3 36.7 62.2C36.8 62.2 36.8 62.1 36.9 62H37V62.1V62.2C37 62.2 37 62.3 36.9 62.3C36.8 62.4 36.7 62.5 36.6 62.5C36.5 62.5 36.5 62.6 36.4 62.6C36.3 62.6 36.3 62.7 36.2 62.7C36.1 62.7 36.1 62.7 36 62.7C35.9 62.7 35.9 62.7 35.8 62.7C35.7 62.7 35.5 62.7 35.3 62.6C35.2 62.6 35.2 62.6 35.1 62.5C35.1 62.5 35.1 62.5 35.1 62.6V62.7C35.1 62.7 35 62.7 35 62.8C34.9 62.8 34.9 62.8 34.8 62.9C34.7 62.9 34.7 63 34.6 63C34.5 63 34.5 63.1 34.4 63.1C34.3 63.1 34.3 63.2 34.2 63.3C34.1 63.4 34.1 63.4 34 63.5C33.9 63.6 33.9 63.7 33.8 63.8C34.1 63.7 34.1 63.9 34 64C33.9 64.1 33.9 64.2 33.8 64.4V64.5H33.9C34 64.5 34 64.5 34.1 64.4C34.2 64.3 34.2 64.3 34.3 64.3ZM35.2 62.5C35 62.4 34.8 62.4 34.5 62.3C34.1 62.2 33.8 62.1 33.5 62C33.2 61.9 32.9 61.9 32.7 61.9C32.6 61.9 32.4 61.9 32.3 61.9C32.2 61.9 32 62 31.8 62C31.6 62.1 31.5 62.1 31.4 62.2C31.3 62.3 31.1 62.4 31 62.4C30.9 62.5 30.7 62.6 30.6 62.7C30.5 62.8 30.4 62.9 30.3 63C30.2 63.1 30.1 63.2 30 63.3C29.9 63.4 29.9 63.5 29.8 63.6C29.9 63.6 29.9 63.6 30 63.7C30.1 63.7 30.2 63.7 30.2 63.8C30.5 63.9 30.8 64 31 64.1C31.2 64.2 31.4 64.3 31.6 64.4V64.5V64.6H31.5C31.5 64.6 31.5 64.6 31.4 64.6C31 64.3 30.4 64.1 29.8 63.9V64V64.1C29.8 64.2 29.8 64.3 29.8 64.4C29.8 64.5 29.8 64.6 29.9 64.7V64.8C29.9 64.8 29.9 64.8 29.8 64.8H29.7C29.7 64.8 29.7 64.8 29.6 64.7C29.6 64.7 29.6 64.6 29.5 64.6V64.5V64.4V64.3V64.2V64.1V64H29.4H29.3C29.2 64 29.1 64 29.1 64C28.7 64 28.3 64.1 27.8 64.2C27.6 64.3 27.4 64.3 27.2 64.4C27 64.5 26.8 64.6 26.7 64.7C26.5 64.8 26.4 64.9 26.3 65.1C26.2 65.2 26.1 65.4 26 65.5C25.9 65.6 25.8 65.8 25.8 65.9C25.8 66 25.7 66.2 25.7 66.3C25.7 66.6 25.8 66.8 25.9 67C26 67.1 26 67.2 26.1 67.3C26.2 67.4 26.3 67.5 26.4 67.5C26.5 67.6 26.7 67.6 26.8 67.7C27 67.8 27.1 67.8 27.3 67.8C27.5 67.8 27.7 67.9 27.9 67.9C28.1 67.9 28.3 67.9 28.5 67.9C28.9 67.9 29.3 67.8 29.7 67.8C30.1 67.7 30.4 67.6 30.7 67.4C31 67.3 31.3 67 31.6 66.7C31.9 66.4 32.1 66.1 32.3 65.7L32.5 65.4C32.5 65.3 32.6 65.2 32.7 65.1L32.9 64.8C32.9 64.7 33 64.6 33 64.5C33.1 64.4 33.1 64.3 33.2 64.2C33.3 64.1 33.3 64 33.4 63.9C33.5 63.8 33.5 63.7 33.6 63.6C33.7 63.5 33.7 63.4 33.8 63.4C33.8 63.3 33.9 63.3 33.9 63.2C33.9 63.2 34 63.1 34.1 63C34.2 63 34.2 62.9 34.3 62.9C34.4 62.9 34.4 62.8 34.5 62.8C34.6 62.8 34.6 62.7 34.7 62.7C34.8 62.7 34.8 62.6 34.9 62.6C35 62.6 35 62.6 35.1 62.5C35.1 62.5 35.1 62.5 35.2 62.5ZM68.2 63.5C68.2 63.9 68.1 64.3 67.9 64.6C67.7 65 67.4 65.3 66.9 65.6C66.5 65.9 66.1 66.2 65.6 66.3C65.2 66.5 64.7 66.5 64.3 66.5H64.2H64.1C63.9 67 63.6 67.5 63.3 67.9C63 68.3 62.6 68.8 62.2 69.1C61.8 69.5 61.3 69.8 60.9 70C60.5 70.2 60.1 70.3 59.7 70.3C59.3 70.3 59 70.2 58.8 70C58.8 69.9 58.8 69.9 58.8 69.9C58.8 69.9 58.9 69.8 59 69.8C59.1 69.9 59.2 69.9 59.3 69.9C59.4 69.9 59.5 69.9 59.7 69.9C59.9 69.9 60.2 69.9 60.4 69.8C60.6 69.7 60.9 69.6 61.1 69.4C61.3 69.2 61.6 69 61.8 68.8C62 68.6 62.2 68.3 62.4 68C62.5 67.8 62.7 67.5 62.9 67.2C63 67 63.1 66.8 63.2 66.6L63.9 65.2C64 65 64.1 64.9 64.1 64.7C64.2 64.5 64.3 64.3 64.4 64.1C64.5 63.9 64.6 63.8 64.7 63.7C64.8 63.5 65 63.3 65.1 63.1C65.2 62.9 65.4 62.7 65.5 62.6C65.6 62.5 65.7 62.4 65.8 62.3C65.9 62.2 66 62.2 66 62.2C66.1 62.2 66.1 62.2 66.1 62.2C66.1 62.2 66.2 62.2 66.2 62.3L66.1 62.4L66 62.5C65.9 62.7 65.6 63 65.3 63.6C65 64.2 64.6 65 64.2 66C65 66 65.7 65.7 66.4 64.9C66.7 64.6 67 64.2 67.2 63.9C67.4 63.6 67.5 63.2 67.5 62.9C67.5 62.5 67.4 62.2 67.1 61.9C66.8 61.7 66.4 61.6 65.8 61.6C65.6 61.6 65.3 61.6 65.1 61.6C63 61.9 61.5 62.3 60.2 63.1C60.4 63 60.5 62.8 60.7 62.7C61.2 62.4 61.7 62.1 62.2 61.9C62.7 61.7 63.3 61.5 63.8 61.4C64.3 61.3 64.9 61.2 65.4 61.2C67.3 61.7 68.2 62.3 68.2 63.5Z" fill="#1D1D1B"/>
<path d="M51.7002 66.2C51.9002 66.5 52.3002 66.5 52.6002 66.4C52.1002 66.9 51.8002 67.3 51.3002 67.6C51.1002 67.7 50.9002 67.8 50.9002 67.7C50.8002 67.6 50.9002 67.6 50.9002 67.4C51.1002 67.1 51.2002 66.9 51.4002 66.6C51.5002 66.3 51.3002 65.9 50.8002 65.8C50.9002 66 50.7002 66.3 50.5002 66.7L50.3002 67.1C50.2002 67.4 50.1002 67.6 50.4002 67.9C50.6002 68.1 50.9002 68.1 51.2002 67.9C51.8002 67.5 52.4002 67.1 52.9002 66.3C53.0002 66.2 52.9002 66.1 52.9002 66C52.7002 66 52.6002 66.1 52.4002 66C52.3002 65.9 52.3002 65.8 52.4002 65.6C52.7002 64.9 53.2002 64.6 53.6002 64.8C53.7002 64.9 53.6002 65 53.5002 65.3L52.9002 66.6C52.6002 67.5 52.7002 67.9 53.1002 68.1C53.6002 68.3 54.0002 68.1 54.3002 67.9C54.4002 67.9 54.4002 67.8 54.4002 67.8C54.4002 67.7 54.4002 67.7 54.3002 67.6C54.2002 67.7 54.2002 67.7 54.1002 67.8C53.8002 68 53.5002 68.1 53.4002 68C53.2002 67.8 53.3002 67.5 53.5002 67.1L54.4002 65.1C54.1002 64.6 53.4002 64.6 52.8002 64.8C51.9002 65 51.4002 65.7 51.7002 66.2ZM68.9002 64.7V64.6H69.0002H69.1002H69.2002H69.3002H69.4002C69.4002 64.6 69.5002 64.6 69.5002 64.7C69.5002 64.7 69.6002 64.7 69.6002 64.8L69.7002 64.9C69.7002 64.9 69.7002 65 69.8002 65V65.1V65.2C69.8002 65.3 69.8002 65.3 69.8002 65.4C69.8002 65.5 69.8002 65.6 69.8002 65.6C69.8002 65.7 69.8002 65.8 69.7002 65.9C69.7002 66 69.6002 66.1 69.6002 66.2C69.6002 66.3 69.5002 66.4 69.5002 66.5C69.5002 66.6 69.4002 66.7 69.4002 66.8C69.4002 66.9 69.3002 67 69.3002 67C69.3002 67.1 69.2002 67.2 69.2002 67.2C69.2002 67.3 69.1002 67.3 69.1002 67.4C69.1002 67.5 69.0002 67.5 69.0002 67.6C69.0002 67.7 68.9002 67.7 68.9002 67.7H69.0002C69.0002 67.7 69.1002 67.7 69.1002 67.6L69.2002 67.5L69.3002 67.4L69.4002 67.3L69.5002 67.2L69.6002 67.1C69.7002 67 69.8002 66.9 69.8002 66.8C69.9002 66.7 70.0002 66.6 70.0002 66.5C70.1002 66.4 70.1002 66.3 70.2002 66.2C70.3002 66.1 70.3002 66 70.4002 65.9C70.5002 65.8 70.5002 65.7 70.6002 65.6C70.7002 65.5 70.7002 65.4 70.8002 65.4L71.1002 65C71.1002 64.9 71.2002 64.9 71.2002 64.9L71.3002 64.8C71.3002 64.8 71.3002 64.8 71.4002 64.7C71.4002 64.7 71.4002 64.7 71.5002 64.6H71.6002H71.7002H71.8002H71.9002C71.9002 64.6 72.0002 64.6 72.0002 64.7C72.1002 64.7 72.1002 64.8 72.2002 64.8C72.2002 64.9 72.1002 65 72.1002 65.1L71.9002 65.5C71.8002 65.6 71.8002 65.8 71.7002 65.9C71.6002 66.1 71.5002 66.2 71.4002 66.4C71.3002 66.6 71.2002 66.8 71.1002 67C71.0002 67.2 70.8002 67.4 70.7002 67.6C70.6002 67.8 70.4002 68 70.3002 68.2C70.2002 68.4 70.0002 68.6 69.9002 68.7C69.8002 68.9 69.6002 69 69.5002 69.1C69.4002 69.2 69.3002 69.3 69.1002 69.4C69.0002 69.5 68.9002 69.6 68.7002 69.6C68.6002 69.7 68.5002 69.7 68.4002 69.8C68.3002 69.8 68.2002 69.9 68.1002 69.9C68.0002 69.9 67.9002 69.9 67.8002 69.9C67.7002 69.9 67.6002 69.9 67.5002 69.9C67.4002 69.9 67.3002 69.9 67.3002 69.8C67.2002 69.8 67.2002 69.7 67.1002 69.7C67.0002 69.7 67.0002 69.6 66.9002 69.6L66.8002 69.5C66.8002 69.5 66.7002 69.4 66.7002 69.3C66.7002 69.2 66.6002 69.2 66.6002 69.1C66.6002 69.1 66.6002 69 66.5002 69V68.9V68.8V68.7H66.6002C66.6002 68.7 66.6002 68.7 66.6002 68.8C66.6002 68.8 66.6002 68.8 66.6002 68.9C66.6002 68.9 66.6002 69 66.7002 69C66.7002 69 66.7002 69.1 66.8002 69.1L66.9002 69.2L67.0002 69.3L67.1002 69.4C67.1002 69.4 67.2002 69.4 67.3002 69.5C67.4002 69.5 67.4002 69.5 67.5002 69.5C67.6002 69.5 67.6002 69.5 67.7002 69.5C67.8002 69.5 67.9002 69.5 68.0002 69.5C68.1002 69.5 68.2002 69.5 68.3002 69.4C68.4002 69.4 68.5002 69.3 68.6002 69.3C68.7002 69.2 68.8002 69.2 68.8002 69.1C68.9002 69 69.0002 69 69.0002 68.9C69.1002 68.8 69.1002 68.8 69.2002 68.7C69.3002 68.6 69.3002 68.5 69.4002 68.5C69.5002 68.4 69.5002 68.3 69.6002 68.3C69.7002 68.2 69.7002 68.2 69.8002 68.1C69.9002 68 69.9002 68 69.9002 67.9C69.9002 67.8 70.0002 67.8 70.0002 67.7C70.0002 67.6 70.1002 67.6 70.1002 67.5C70.1002 67.4 70.2002 67.4 70.2002 67.3C70.2002 67.2 70.3002 67.2 70.3002 67.1C70.3002 67 70.4002 67 70.4002 66.9C70.4002 66.8 70.5002 66.8 70.5002 66.7L70.6002 66.5L70.7002 66.4L70.8002 66.3L70.7002 66.4C70.7002 66.5 70.6002 66.5 70.6002 66.6C70.5002 66.7 70.5002 66.7 70.4002 66.8C70.3002 66.9 70.3002 66.9 70.2002 67C70.0002 66.9 70.0002 67 69.9002 67C69.8002 67.1 69.8002 67.1 69.7002 67.2C69.6002 67.3 69.6002 67.3 69.5002 67.4C69.4002 67.5 69.4002 67.5 69.3002 67.6C69.2002 67.7 69.2002 67.7 69.1002 67.8C69.0002 67.8 69.0002 67.9 68.9002 67.9C68.8002 67.9 68.8002 68 68.7002 68C68.6002 68 68.6002 68 68.5002 68H68.4002H68.3002H68.2002C68.2002 68 68.2002 68 68.1002 68C68.1002 68 68.1002 68 68.0002 68C68.0002 68 68.0002 68 67.9002 67.9C67.9002 67.9 67.9002 67.9 68.0002 67.8C68.0002 67.8 68.0002 67.7 68.1002 67.7C68.1002 67.6 68.2002 67.6 68.2002 67.5C68.2002 67.4 68.3002 67.4 68.3002 67.3C68.3002 67.2 68.4002 67.1 68.4002 67C68.4002 66.9 68.5002 66.8 68.5002 66.7C68.5002 66.6 68.6002 66.5 68.6002 66.4C68.6002 66.3 68.7002 66.2 68.7002 66.1C68.7002 66 68.8002 65.9 68.8002 65.8C68.8002 65.7 68.8002 65.6 68.9002 65.5C68.9002 65.4 68.9002 65.3 68.9002 65.2C68.9002 65.1 68.9002 65 68.9002 65V64.9C69.0002 64.9 69.0002 64.8 68.9002 64.7C69.0002 64.8 69.0002 64.8 68.9002 64.7ZM74.4002 64.7C74.5002 64.7 74.6002 64.7 74.8002 64.7C74.9002 64.7 75.0002 64.7 75.1002 64.7C75.2002 64.7 75.2002 64.7 75.3002 64.8C75.4002 64.8 75.4002 64.9 75.4002 64.9C75.4002 64.9 75.5002 65 75.5002 65.1C75.5002 65.2 75.5002 65.3 75.5002 65.3C75.5002 65.4 75.4002 65.5 75.4002 65.5C75.3002 65.6 75.3002 65.7 75.2002 65.7C75.1002 65.8 75.0002 65.9 74.9002 65.9C74.8002 66 74.7002 66.1 74.5002 66.1C74.4002 66.1 74.4002 66.2 74.3002 66.2H74.4002C74.5002 66.2 74.5002 66.2 74.6002 66.2H74.7002C74.8002 66.2 74.9002 66.2 74.9002 66.2C75.0002 66.2 75.0002 66.2 75.1002 66.3L75.2002 66.4C75.2002 66.4 75.2002 66.5 75.3002 66.6C75.3002 66.7 75.3002 66.8 75.3002 66.8C75.3002 66.9 75.3002 67 75.2002 67C75.2002 67.1 75.1002 67.2 75.1002 67.2C75.1002 67.3 75.0002 67.3 75.0002 67.4C74.9002 67.5 74.9002 67.5 74.8002 67.6C74.7002 67.7 74.7002 67.7 74.6002 67.8C74.5002 67.8 74.4002 67.9 74.4002 67.9C74.3002 67.9 74.2002 68 74.2002 68C74.1002 68 74.0002 68 74.0002 68.1C73.9002 68.1 73.8002 68.1 73.8002 68.1C73.7002 68.1 73.7002 68.1 73.6002 68.1C73.5002 68.1 73.5002 68.1 73.4002 68.1C73.3002 68.1 73.3002 68.1 73.2002 68C73.1002 68 73.1002 67.9 73.0002 67.9C72.9002 67.9 72.9002 67.8 72.8002 67.8C72.8002 67.8 72.7002 67.7 72.7002 67.6C72.7002 67.5 72.6002 67.5 72.6002 67.4C72.6002 67.3 72.6002 67.3 72.6002 67.2V67.1L72.7002 67.2C72.8002 67.3 72.8002 67.3 72.9002 67.4C73.0002 67.4 73.0002 67.5 73.1002 67.5C73.2002 67.5 73.2002 67.5 73.3002 67.6C73.4002 67.6 73.5002 67.6 73.5002 67.6C73.6002 67.6 73.7002 67.6 73.7002 67.6C73.8002 67.6 73.8002 67.6 73.9002 67.5C74.0002 67.5 74.0002 67.5 74.1002 67.4C74.2002 67.4 74.2002 67.3 74.3002 67.3C74.4002 67.3 74.4002 67.2 74.4002 67.2L74.5002 67.1L74.6002 67C74.6002 67 74.6002 66.9 74.7002 66.9V66.8V66.7C74.7002 66.7 74.6002 66.7 74.5002 66.7H74.4002H74.3002H74.2002C74.2002 66.7 74.1002 66.7 74.1002 66.8C74.1002 66.8 74.0002 66.8 74.0002 66.9L73.9002 67V66.9C73.9002 66.9 73.9002 66.9 73.9002 66.8C73.9002 66.8 73.9002 66.8 73.9002 66.7L74.0002 66.6L74.1002 66.5L74.2002 66.4C74.3002 66.3 74.4002 66.3 74.4002 66.2C74.5002 66.1 74.5002 66.1 74.6002 66C74.7002 65.9 74.7002 65.9 74.8002 65.8C74.8002 65.7 74.9002 65.7 74.9002 65.6C74.9002 65.5 75.0002 65.5 75.0002 65.4C75.0002 65.3 75.0002 65.3 75.0002 65.2C75.0002 65.2 75.0002 65.2 75.0002 65.1C75.0002 65.1 75.0002 65.1 74.9002 65.1C74.9002 65.1 74.9002 65.1 74.8002 65.1H74.7002C74.7002 65.1 74.6002 65.1 74.6002 65.2L74.5002 65.3L74.4002 65.4L74.3002 65.5C74.3002 65.5 74.2002 65.6 74.2002 65.7C74.2002 65.8 74.1002 65.8 74.1002 65.9C74.1002 66 74.0002 66 74.0002 66.1C74.0002 66.2 74.0002 66.2 73.9002 66.3C73.9002 66.4 73.9002 66.4 73.9002 66.5V66.6C73.9002 66.6 73.9002 66.6 73.8002 66.5C73.8002 66.5 73.8002 66.4 73.7002 66.4V66.3V66.2C73.7002 66.1 73.7002 66.1 73.7002 66C73.7002 65.9 73.7002 65.9 73.8002 65.8C73.8002 65.7 73.9002 65.7 73.9002 65.6C74.0002 65.5 74.0002 65.5 74.1002 65.4C74.2002 65.3 74.3002 65.3 74.3002 65.3C74.4002 65.3 74.5002 65.2 74.6002 65.2C74.2002 64.7 74.3002 64.7 74.4002 64.7ZM79.3002 65.1C79.2002 65.1 79.2002 65.1 79.2002 65.1C79.2002 65.1 79.2002 65.1 79.1002 65.1C79.1002 65.1 79.1002 65.1 79.0002 65.1H78.9002H78.8002C78.8002 65.1 78.7002 65.1 78.7002 65.2C78.6002 65.2 78.6002 65.3 78.5002 65.3C78.4002 65.3 78.4002 65.4 78.3002 65.5C78.2002 65.6 78.2002 65.6 78.1002 65.7C78.0002 65.8 77.9002 65.9 77.9002 66L77.8002 66.1C77.8002 66.2 77.7002 66.2 77.7002 66.3C77.7002 66.4 77.6002 66.4 77.6002 66.5C77.6002 66.6 77.5002 66.6 77.5002 66.7C77.5002 66.8 77.4002 66.8 77.4002 66.9C77.4002 67 77.3002 67 77.3002 67.1C77.3002 67.2 77.3002 67.2 77.2002 67.3C77.2002 67.4 77.2002 67.4 77.2002 67.5C77.2002 67.6 77.2002 67.6 77.2002 67.7V67.8C77.2002 67.8 77.2002 67.8 77.2002 67.9H77.3002C77.3002 67.9 77.4002 67.9 77.4002 67.8L77.5002 67.7L77.6002 67.6C77.6002 67.5 77.7002 67.5 77.7002 67.4C77.7002 67.3 77.8002 67.3 77.8002 67.2C77.8002 67.1 77.9002 67.1 77.9002 67C77.9002 66.9 78.0002 66.9 78.0002 66.8C78.0002 66.7 78.1002 66.7 78.1002 66.6C78.1002 66.5 78.2002 66.5 78.2002 66.4L78.3002 66.2L78.4002 66.1L78.5002 66V65.9L78.6002 65.7L78.7002 65.5L78.8002 65.4C78.8002 65.4 78.8002 65.3 78.9002 65.3L79.3002 65.1ZM79.3002 65.1C79.4002 65 79.4002 65 79.4002 65L79.5002 64.9L79.6002 64.8C79.6002 64.8 79.7002 64.8 79.7002 64.7H79.8002C79.9002 64.7 79.9002 64.7 80.0002 64.7C80.1002 64.7 80.1002 64.7 80.2002 64.8L80.3002 64.9C80.3002 65 80.4002 65 80.4002 65.1C80.4002 65.1 80.4002 65.1 80.3002 65.2L80.2002 65.3C80.2002 65.4 80.1002 65.4 80.1002 65.5C80.1002 65.6 80.0002 65.6 79.9002 65.7L79.8002 65.8C79.8002 65.9 79.7002 65.9 79.7002 66C79.7002 66.1 79.6002 66.1 79.6002 66.2C79.6002 66.3 79.5002 66.3 79.5002 66.4C79.5002 66.5 79.4002 66.5 79.4002 66.6C79.4002 66.7 79.3002 66.8 79.3002 66.8C79.3002 66.9 79.2002 67 79.2002 67C79.2002 67.1 79.2002 67.1 79.1002 67.2C79.1002 67.3 79.1002 67.3 79.1002 67.4C79.1002 67.5 79.1002 67.5 79.1002 67.6V67.7C79.1002 67.7 79.1002 67.7 79.1002 67.8C79.1002 67.8 79.1002 67.8 79.2002 67.8H79.3002H79.4002C79.4002 67.8 79.5002 67.8 79.5002 67.7C79.5002 67.7 79.6002 67.6 79.7002 67.6C79.8002 67.6 79.8002 67.5 79.9002 67.4C80.0002 67.4 80.0002 67.5 80.0002 67.6C80.0002 67.6 80.0002 67.7 79.9002 67.7C79.9002 67.7 79.8002 67.7 79.8002 67.8C79.7002 67.8 79.7002 67.9 79.6002 67.9C79.5002 67.9 79.5002 68 79.4002 68C79.3002 68 79.3002 68 79.2002 68C79.1002 68 79.0002 68 79.0002 68C78.9002 68 78.9002 67.9 78.8002 67.9C78.7002 67.8 78.6002 67.6 78.6002 67.4C78.6002 67.3 78.6002 67.3 78.6002 67.2C78.6002 67.1 78.6002 67.1 78.6002 67C78.6002 66.9 78.6002 66.9 78.6002 66.8C78.6002 66.7 78.6002 66.7 78.6002 66.6L78.5002 66.7C78.5002 66.8 78.4002 66.8 78.4002 66.9C78.4002 67 78.3002 67 78.3002 67.1C78.3002 67.2 78.2002 67.2 78.2002 67.3C78.2002 67.4 78.1002 67.4 78.1002 67.5C78.1002 67.6 78.0002 67.6 77.9002 67.7C77.8002 67.7 77.8002 67.8 77.7002 67.8C77.6002 67.8 77.6002 67.9 77.5002 67.9C77.4002 67.9 77.4002 68 77.3002 68C77.2002 68 77.2002 68 77.1002 68C77.0002 68 76.9002 68 76.9002 68C76.8002 68 76.8002 67.9 76.7002 67.9C76.6002 67.8 76.6002 67.8 76.6002 67.7C76.6002 67.6 76.5002 67.5 76.5002 67.4C76.5002 67.3 76.5002 67.3 76.5002 67.2C76.5002 67.1 76.5002 67.1 76.5002 67C76.5002 66.9 76.5002 66.9 76.5002 66.8C76.5002 66.7 76.5002 66.7 76.5002 66.6C76.5002 66.5 76.6002 66.4 76.6002 66.3C76.6002 66.2 76.7002 66.1 76.8002 66C76.9002 65.9 76.9002 65.8 77.0002 65.7C77.1002 65.6 77.1002 65.5 77.2002 65.4C77.3002 65.3 77.4002 65.2 77.4002 65.1C77.5002 65 77.6002 65 77.7002 64.9C77.8002 64.8 77.9002 64.8 78.0002 64.7C78.1002 64.6 78.2002 64.6 78.3002 64.6C78.4002 64.6 78.5002 64.5 78.6002 64.5C78.7002 64.5 78.8002 64.5 78.9002 64.5H79.0002H79.1002H79.2002C79.2002 64.5 79.2002 64.5 79.3002 64.6C79.3002 64.6 79.3002 64.6 79.3002 64.7C79.3002 64.7 79.3002 64.7 79.3002 64.8C79.2002 65 79.2002 65 79.3002 65.1C79.3002 65 79.3002 65 79.3002 65.1ZM40.1002 65V65.1V65.2V65.3C40.1002 65.3 40.1002 65.4 40.0002 65.4L39.9002 65.5C39.9002 65.5 39.8002 65.6 39.7002 65.6C39.6002 65.6 39.6002 65.7 39.5002 65.7C39.4002 65.7 39.3002 65.8 39.2002 65.8C39.1002 65.8 39.0002 65.9 38.9002 65.9C38.8002 65.9 38.6002 66 38.5002 66C38.4002 66 38.2002 66.1 38.0002 66.1C38.0002 66.2 37.9002 66.2 37.9002 66.3C37.9002 66.4 37.9002 66.4 37.8002 66.5C37.8002 66.6 37.8002 66.6 37.7002 66.7C37.7002 66.8 37.7002 66.8 37.7002 66.9C37.7002 67 37.7002 67 37.7002 67.1C37.7002 67.2 37.7002 67.2 37.7002 67.3V67.4V67.5C37.7002 67.5 37.7002 67.6 37.8002 67.6C37.8002 67.6 37.8002 67.6 37.9002 67.7H38.0002H38.1002C38.6002 67.7 38.9002 67.5 39.2002 67.2C39.2002 67.2 39.2002 67.2 39.2002 67.3C39.2002 67.3 39.2002 67.3 39.2002 67.4C39.1002 67.6 38.5002 67.8 38.3002 67.9C38.1002 68 37.9002 68 37.6002 68C37.5002 68 37.5002 68 37.4002 68C37.3002 68 37.3002 68 37.2002 67.9C37.1002 67.9 37.1002 67.8 37.0002 67.8L36.9002 67.7C36.9002 67.6 36.8002 67.6 36.8002 67.5C36.8002 67.4 36.8002 67.4 36.7002 67.3C36.7002 67.2 36.7002 67.1 36.7002 67C36.7002 66.9 36.7002 66.8 36.7002 66.7C36.7002 66.6 36.8002 66.5 36.8002 66.4C36.8002 66.3 36.9002 66.2 37.0002 66.1C37.1002 66 37.1002 65.9 37.2002 65.8C37.3002 65.7 37.3002 65.6 37.4002 65.5C37.5002 65.4 37.6002 65.3 37.7002 65.2C37.8002 65.1 37.9002 65 38.0002 65C38.1002 64.9 38.2002 64.9 38.3002 64.8C38.4002 64.7 38.5002 64.7 38.6002 64.7C38.7002 64.7 38.8002 64.6 38.9002 64.6C39.0002 64.6 39.1002 64.6 39.2002 64.6C39.3002 64.6 39.3002 64.6 39.4002 64.6C39.5002 64.6 39.5002 64.6 39.6002 64.6C39.7002 64.6 39.8002 64.7 39.8002 64.8C40.1002 64.9 40.1002 64.9 40.1002 65ZM38.2002 66.1C38.3002 66.1 38.3002 66.1 38.4002 66.1C38.5002 66.1 38.6002 66 38.7002 66C38.8002 66 38.9002 65.9 39.0002 65.9C39.1002 65.9 39.1002 65.8 39.2002 65.7C39.3002 65.6 39.3002 65.6 39.4002 65.5C39.4002 65.4 39.5002 65.4 39.5002 65.3C39.5002 65.2 39.6002 65.2 39.6002 65.1C39.6002 65 39.6002 65 39.6002 64.9H39.5002C39.5002 64.9 39.4002 64.9 39.4002 65C39.3002 65 39.3002 65.1 39.2002 65.1C39.1002 65.1 39.1002 65.2 39.0002 65.2C38.9002 65.3 38.9002 65.3 38.9002 65.4C38.9002 65.5 38.8002 65.5 38.8002 65.6C38.8002 65.7 38.7002 65.7 38.7002 65.8C38.7002 65.9 38.6002 65.9 38.6002 66C38.2002 66 38.2002 66 38.2002 66.1ZM43.4002 64.7C43.4002 64.6 43.4002 64.6 43.4002 64.7L43.3002 64.6H43.4002C43.5002 64.6 43.6002 64.6 43.7002 64.6C43.8002 64.6 43.9002 64.6 43.9002 64.7C44.0002 64.7 44.0002 64.8 44.1002 64.8C44.1002 64.9 44.2002 64.9 44.2002 65C44.2002 65.1 44.2002 65.1 44.2002 65.2C44.2002 65.3 44.2002 65.3 44.2002 65.4C44.2002 65.5 44.2002 65.5 44.1002 65.6C44.1002 65.7 44.0002 65.8 44.0002 65.9C44.0002 66 43.9002 66.1 43.9002 66.2C43.9002 66.3 43.8002 66.4 43.8002 66.5C43.8002 66.6 43.7002 66.7 43.7002 66.7C43.7002 66.8 43.6002 66.9 43.6002 66.9C43.6002 67 43.5002 67 43.5002 67.1C43.5002 67.2 43.5002 67.2 43.4002 67.3C43.4002 67.4 43.4002 67.4 43.4002 67.5C43.4002 67.6 43.4002 67.6 43.4002 67.7V67.8C43.4002 67.8 43.4002 67.9 43.5002 67.9H43.6002H43.7002H43.8002C43.8002 67.9 43.9002 67.9 43.9002 67.8C43.9002 67.8 44.0002 67.8 44.0002 67.7C44.1002 67.6 44.2002 67.6 44.2002 67.5C44.3002 67.5 44.3002 67.6 44.3002 67.7C44.3002 67.7 44.3002 67.8 44.2002 67.8C44.2002 67.8 44.2002 67.8 44.1002 67.8C44.1002 68 44.0002 68 44.0002 68C43.9002 68 43.9002 68.1 43.8002 68.1C43.7002 68.1 43.7002 68.1 43.6002 68.2C43.5002 68.2 43.5002 68.2 43.4002 68.2C43.3002 68.2 43.3002 68.2 43.2002 68.2C43.1002 68.2 43.1002 68.2 43.0002 68.1C43.0002 68.1 43.0002 68 42.9002 68L42.8002 67.9L42.7002 67.8C42.7002 67.7 42.7002 67.7 42.7002 67.6C42.7002 67.5 42.7002 67.4 42.7002 67.3C42.7002 67.2 42.7002 67.1 42.8002 66.9C42.8002 66.8 42.9002 66.6 43.0002 66.5C43.0002 66.5 43.0002 66.4 43.1002 66.4C43.0002 66.5 43.0002 66.5 42.9002 66.6C42.8002 66.7 42.8002 66.7 42.7002 66.8C42.6002 66.9 42.6002 67 42.5002 67C42.4002 67.1 42.4002 67.2 42.3002 67.2C42.2002 67.3 42.2002 67.3 42.1002 67.4C42.0002 67.5 42.0002 67.5 41.9002 67.6C41.8002 67.7 41.8002 67.7 41.7002 67.8C41.6002 67.9 41.6002 67.9 41.5002 67.9C41.4002 67.9 41.4002 68 41.3002 68C41.2002 68 41.2002 68 41.1002 68H41.0002H40.9002C40.9002 68 40.8002 68 40.8002 67.9C40.8002 67.9 40.7002 67.9 40.7002 67.8C40.7002 67.8 40.7002 67.7 40.6002 67.7V67.6V67.5C40.6002 67.5 40.6002 67.4 40.6002 67.3C40.6002 67.2 40.6002 67.2 40.7002 67.1C40.7002 67 40.7002 67 40.8002 66.9C40.8002 66.8 40.9002 66.8 40.9002 66.7C40.9002 66.6 41.0002 66.6 41.0002 66.5C41.0002 66.4 41.1002 66.4 41.1002 66.3C41.1002 66.2 41.2002 66.2 41.2002 66.1C41.2002 66 41.3002 66 41.3002 66C41.3002 66 41.3002 65.9 41.4002 65.9V65.8V65.7V65.6H41.5002C41.6002 65.6 41.6002 65.6 41.6002 65.7C41.6002 65.7 41.7002 65.7 41.7002 65.8C41.7002 65.8 41.8002 65.8 41.8002 65.9L41.9002 66C41.9002 66.1 42.0002 66.2 42.0002 66.3V66.4V66.5C42.0002 66.5 42.0002 66.6 41.9002 66.7C41.9002 66.7 41.9002 66.8 41.8002 66.8L41.7002 66.9L41.6002 67L41.5002 67.1L41.4002 67.2C41.4002 67.2 41.4002 67.3 41.3002 67.3C41.3002 67.3 41.3002 67.4 41.2002 67.4C41.2002 67.4 41.2002 67.4 41.2002 67.5C41.2002 67.5 41.2002 67.5 41.3002 67.5C41.3002 67.5 41.4002 67.5 41.4002 67.4L41.5002 67.3C41.6002 67.3 41.6002 67.2 41.7002 67.2C41.8002 67.1 41.8002 67.1 41.9002 67C42.0002 66.9 42.0002 66.9 42.1002 66.8C42.2002 66.7 42.2002 66.7 42.3002 66.6C42.4002 66.5 42.4002 66.5 42.5002 66.4C42.6002 66.3 42.6002 66.2 42.7002 66.2C42.8002 66.1 42.8002 66 42.9002 66C43.0002 65.9 43.0002 65.8 43.1002 65.8C43.2002 65.7 43.2002 65.7 43.3002 65.6C43.3002 65.5 43.4002 65.5 43.4002 65.4C43.4002 65.3 43.5002 65.3 43.5002 65.2C43.5002 65.1 43.6002 65.1 43.6002 65C43.6002 64.9 43.6002 64.9 43.6002 64.9V64.8V64.7C43.6002 64.7 43.6002 64.7 43.6002 64.6C43.4002 64.8 43.4002 64.7 43.4002 64.7ZM48.2002 65.1C48.1002 65.1 48.1002 65.1 48.1002 65.1C48.1002 65.1 48.1002 65.1 48.0002 65.1C48.0002 65.1 48.0002 65.1 47.9002 65.1H47.8002H47.7002C47.7002 65.1 47.6002 65.1 47.6002 65.2C47.5002 65.2 47.5002 65.3 47.4002 65.3C47.3002 65.3 47.3002 65.4 47.2002 65.5C47.1002 65.6 47.1002 65.6 47.0002 65.7C46.9002 65.8 46.8002 65.9 46.8002 66L46.7002 66.1C46.7002 66.2 46.6002 66.2 46.6002 66.3C46.6002 66.4 46.5002 66.4 46.5002 66.5C46.5002 66.6 46.4002 66.6 46.4002 66.7C46.4002 66.8 46.3002 66.8 46.3002 66.9C46.3002 67 46.2002 67 46.2002 67.1C46.2002 67.2 46.2002 67.2 46.1002 67.3C46.1002 67.4 46.1002 67.4 46.1002 67.5C46.1002 67.6 46.1002 67.6 46.1002 67.7V67.8C46.1002 67.8 46.1002 67.8 46.1002 67.9H46.2002C46.2002 67.9 46.3002 67.9 46.3002 67.8L46.4002 67.7L46.5002 67.6C46.5002 67.5 46.6002 67.5 46.6002 67.4C46.6002 67.3 46.7002 67.3 46.7002 67.2C46.7002 67.1 46.8002 67.1 46.8002 67C46.8002 66.9 46.9002 66.9 46.9002 66.8C46.9002 66.7 47.0002 66.7 47.0002 66.6C47.0002 66.5 47.1002 66.5 47.1002 66.4L47.2002 66.2L47.3002 66.1L47.4002 66V65.9L47.5002 65.7L47.6002 65.5L47.7002 65.4C47.7002 65.4 47.7002 65.3 47.8002 65.3L48.2002 65.1ZM48.2002 65.1C48.1002 65.1 48.2002 65.1 48.2002 65.1V65.1ZM48.2002 65.1C48.3002 65 48.3002 65 48.3002 65L48.4002 64.9L48.5002 64.8C48.5002 64.8 48.6002 64.8 48.6002 64.7H48.7002C48.8002 64.7 48.8002 64.7 48.9002 64.7C49.0002 64.7 49.0002 64.7 49.1002 64.8L49.2002 64.9C49.2002 65 49.3002 65 49.3002 65.1C49.3002 65.1 49.3002 65.1 49.2002 65.2L49.1002 65.3C49.1002 65.4 49.0002 65.4 49.0002 65.5C49.0002 65.6 48.9002 65.6 48.8002 65.7L48.7002 65.8C48.7002 65.9 48.6002 65.9 48.6002 66C48.6002 66.1 48.5002 66.1 48.5002 66.2C48.5002 66.3 48.4002 66.3 48.4002 66.4C48.4002 66.5 48.3002 66.5 48.3002 66.6C48.3002 66.7 48.2002 66.8 48.2002 66.8C48.2002 66.9 48.1002 67 48.1002 67C48.1002 67.1 48.1002 67.1 48.0002 67.2C48.0002 67.3 48.0002 67.3 48.0002 67.4C48.0002 67.5 48.0002 67.5 48.0002 67.6V67.7C48.0002 67.7 48.0002 67.7 48.0002 67.8C48.0002 67.8 48.0002 67.8 48.1002 67.8H48.2002H48.3002C48.3002 67.8 48.4002 67.8 48.4002 67.7L48.5002 67.6C48.6002 67.5 48.7002 67.5 48.7002 67.4C48.8002 67.4 48.8002 67.5 48.8002 67.6C48.8002 67.6 48.8002 67.7 48.7002 67.7L48.6002 67.8C48.5002 67.8 48.5002 67.9 48.4002 67.9C48.3002 67.9 48.3002 68 48.2002 68C48.1002 68 48.1002 68 48.0002 68C47.9002 68 47.8002 68 47.8002 68C47.7002 68 47.7002 67.9 47.6002 67.9C47.5002 67.8 47.4002 67.6 47.4002 67.4C47.4002 67.3 47.4002 67.3 47.4002 67.2C47.4002 67.1 47.4002 67.1 47.4002 67C47.4002 66.9 47.4002 66.9 47.4002 66.8C47.4002 66.7 47.4002 66.7 47.4002 66.6L47.3002 66.7C47.3002 66.8 47.2002 66.8 47.2002 66.9C47.2002 67 47.1002 67 47.1002 67.1C47.1002 67.2 47.0002 67.2 47.0002 67.3C47.0002 67.4 46.9002 67.4 46.9002 67.5C46.9002 67.6 46.8002 67.6 46.7002 67.7C46.6002 67.7 46.6002 67.8 46.5002 67.8C46.4002 67.8 46.4002 67.9 46.3002 67.9C46.2002 67.9 46.2002 68 46.1002 68C46.0002 68 46.0002 68 45.9002 68C45.8002 68 45.7002 68 45.7002 68C45.6002 68 45.6002 67.9 45.5002 67.9C45.4002 67.8 45.4002 67.8 45.4002 67.7C45.4002 67.6 45.3002 67.5 45.3002 67.4C45.3002 67.3 45.3002 67.3 45.3002 67.2C45.3002 67.1 45.3002 67.1 45.3002 67C45.3002 66.9 45.3002 66.9 45.3002 66.8C45.3002 66.7 45.3002 66.7 45.3002 66.6C45.3002 66.5 45.4002 66.4 45.4002 66.3C45.4002 66.2 45.5002 66.1 45.6002 66C45.7002 65.9 45.7002 65.8 45.8002 65.7C45.9002 65.6 45.9002 65.5 46.0002 65.4C46.1002 65.3 46.2002 65.2 46.2002 65.1C46.3002 65 46.4002 65 46.5002 64.9C46.6002 64.8 46.7002 64.8 46.8002 64.7C46.9002 64.6 47.0002 64.6 47.1002 64.6C47.2002 64.6 47.3002 64.5 47.4002 64.5C47.5002 64.5 47.6002 64.5 47.7002 64.5H47.8002H47.9002H48.0002C48.0002 64.5 48.0002 64.5 48.1002 64.6C48.1002 64.6 48.1002 64.6 48.1002 64.7C48.1002 64.7 48.1002 64.7 48.1002 64.8C48.2002 65 48.2002 65 48.2002 65.1C48.2002 65 48.2002 65 48.2002 65.1Z" fill="#1D1D1B"/>
<path fill-rule="evenodd" clip-rule="evenodd" d="M66.1998 23.1C64.5998 21.8 64.0998 22 63.2998 22C65.2998 21.8 66.4998 23.7 66.2998 26.6C66.2998 27.1 66.1998 27.3 66.0998 27.7C65.9998 28.2 66.0998 28.4 66.4998 28.3L67.9998 28.1L68.1998 26.8C68.4998 25.4 67.7998 24.3 66.1998 23.1Z" fill="#009FE3"/>
<path fill-rule="evenodd" clip-rule="evenodd" d="M67.1999 28.7C67.1999 29.8 67.5999 30.9 68.3999 31.9C68.0999 31.1 68.1999 30 68.8999 28.5C69.1999 27.9 68.9999 27.5 68.5999 27.5C68.0999 27.5 67.2999 27.4 67.0999 27.6C66.8999 27.7 66.6999 28 66.3999 28.4C66.9999 27.9 67.2999 27.9 67.1999 28.7Z" fill="#009FE3"/>
<path fill-rule="evenodd" clip-rule="evenodd" d="M66.8002 53.2C64.5002 50.9 61.0002 43.3 58.7002 47.6C58.8002 47.1 59.0002 46.8 59.6002 46.2C60.0002 45.7 60.2002 45.6 60.7002 45.4C62.6002 44.7 64.9002 47.1 66.3002 48.8C67.1002 49.8 69.0002 53.5 70.1002 52.4C70.2002 52.3 70.2002 52.3 70.3002 52.2C69.4002 53.7 68.2002 54.7 66.8002 53.2Z" fill="#009FE3"/>
<path fill-rule="evenodd" clip-rule="evenodd" d="M63.3001 38.8C68.8001 45.7 70.6001 47.5 70.0001 52.1V52.2L70.1001 52.3C70.1001 52.2 70.2001 52.1 70.2001 52C70.6001 51.1 70.7001 50.6 70.9001 49.2C71.3001 47.6 70.7001 44.8 69.8001 43.4C66.8001 38.8 63.7001 36.4 62.0001 32.6C60.9001 30 59.8001 23.5 62.7001 22.1C61.9001 22.4 59.6001 24.1 59.1001 26.6C57.9001 31.4 61.0001 36.2 63.3001 38.8Z" fill="#009FE3"/>
<path fill-rule="evenodd" clip-rule="evenodd" d="M57.9999 53.2C55.6999 50.9 52.1999 43.3 49.8999 47.6C49.9999 47.1 50.1999 46.8 50.7999 46.2C51.1999 45.7 51.3999 45.6 51.8999 45.4C53.7999 44.7 56.0999 47.1 57.4999 48.8C58.2999 49.8 60.1999 53.5 61.2999 52.4C61.3999 52.3 61.3999 52.3 61.4999 52.2C60.5999 53.7 59.3999 54.7 57.9999 53.2Z" fill="#009FE3"/>
<path fill-rule="evenodd" clip-rule="evenodd" d="M49.2001 53.2C46.9001 50.9 43.4001 43.3 41.1001 47.6C41.2001 47.1 41.4001 46.8 42.0001 46.2C42.4001 45.7 42.6001 45.6 43.1001 45.4C45.0001 44.7 47.3001 47.1 48.7001 48.8C49.5001 49.8 51.4001 53.5 52.5001 52.4C52.6001 52.3 52.6001 52.3 52.7001 52.2C51.8001 53.7 50.7001 54.7 49.2001 53.2Z" fill="#009FE3"/>
<path d="M40.7998 48.6C40.0998 48.5 39.3998 48.4 38.6998 48.3C36.8998 48.1 35.0998 47.9 33.2998 47.5C39.9998 52.1 46.7998 54.9 53.2998 55.9C59.9998 56.9 66.4998 56.1 72.4998 53.4L71.4998 53L71.5998 52.7L72.9998 53.3L73.3998 53.5L72.9998 53.7C66.7998 56.6 60.0998 57.5 53.1998 56.4C46.3998 55.3 39.2998 52.3 32.1998 47.4L31.2998 46.8L32.2998 47.1C34.3998 47.7 36.4998 47.9 38.6998 48.2C39.3998 48.3 40.0998 48.4 40.7998 48.5V48.6Z" fill="#009FE3"/>
</g>
</g>
<defs>
<filter id="filter0_d" x="0" y="0" width="104.2" height="125.1" filterUnits="userSpaceOnUse" color-interpolation-filters="sRGB">
<feFlood flood-opacity="0" result="BackgroundImageFix"/>
<feColorMatrix in="SourceAlpha" type="matrix" values="0 0 0 0 0 0 0 0 0 0 0 0 0 0 0 0 0 0 127 0" result="hardAlpha"/>
<feOffset dy="4"/>
<feGaussianBlur stdDeviation="5"/>
<feColorMatrix type="matrix" values="0 0 0 0 0 0 0 0 0 0 0 0 0 0 0 0 0 0 0.25 0"/>
<feBlend mode="normal" in2="BackgroundImageFix" result="effect1_dropShadow"/>
<feBlend mode="normal" in="SourceGraphic" in2="effect1_dropShadow" result="shape"/>
</filter>
<clipPath id="clip0">
<rect width="84.2" height="105.1" fill="white" transform="translate(10 6)"/>
</clipPath>
<clipPath id="clip1">
<rect width="55.4" height="48.5" fill="white" transform="translate(25 22)"/>
</clipPath>
</defs>
</svg>
