<svg width="31" height="31" viewBox="0 0 31 31" fill="none" xmlns="http://www.w3.org/2000/svg">
<path d="M19.0667 6.66659C20.3691 6.92067 21.5659 7.5576 22.5042 8.49583C23.4424 9.43407 24.0793 10.6309 24.3334 11.9333M19.0667 1.33325C21.7724 1.63383 24.2955 2.84549 26.2217 4.76926C28.1479 6.69304 29.3628 9.2146 29.6667 11.9199M28.3334 22.5599V26.5599C28.3349 26.9313 28.2588 27.2988 28.1101 27.639C27.9613 27.9793 27.7431 28.2847 27.4695 28.5357C27.1959 28.7868 26.8728 28.9779 26.5211 29.0969C26.1693 29.2158 25.7966 29.26 25.4267 29.2266C21.3239 28.7808 17.3827 27.3788 13.9201 25.1333C10.6985 23.0861 7.96719 20.3548 5.92007 17.1333C3.66671 13.6549 2.2644 9.69458 1.82674 5.57325C1.79342 5.20454 1.83724 4.83293 1.95541 4.48208C2.07357 4.13124 2.2635 3.80884 2.51309 3.53541C2.76269 3.26199 3.06648 3.04353 3.40513 2.89395C3.74378 2.74436 4.10986 2.66693 4.48007 2.66659H8.48007C9.12715 2.66022 9.75446 2.88936 10.2451 3.3113C10.7357 3.73323 11.0562 4.31918 11.1467 4.95992C11.3156 6.24001 11.6287 7.49689 12.0801 8.70659C12.2595 9.18382 12.2983 9.70247 12.1919 10.2011C12.0856 10.6997 11.8386 11.1574 11.4801 11.5199L9.78674 13.2133C11.6848 16.5513 14.4487 19.3152 17.7867 21.2133L19.4801 19.5199C19.8426 19.1614 20.3003 18.9144 20.7989 18.808C21.2975 18.7017 21.8162 18.7405 22.2934 18.9199C23.5031 19.3713 24.76 19.6844 26.0401 19.8533C26.6878 19.9446 27.2793 20.2709 27.7021 20.7699C28.125 21.269 28.3496 21.906 28.3334 22.5599Z" stroke="#5F7B90" stroke-width="2" stroke-linecap="round" stroke-linejoin="round"/>
</svg>
