<svg xmlns="http://www.w3.org/2000/svg" width="145" height="65" viewBox="0 0 145 65"><g><g><g/><g><g><g><path fill="#2c4358" d="M74.255 2.14v21.721h-4.334v-8.803h-8.097v8.803H57.49V2.14h4.334v8.968h8.097V2.14z"/></g><g><path fill="#2c4358" d="M77.77 16.454c0-4.69 3.68-7.734 7.851-7.734 4.171 0 7.851 3.044 7.851 7.734 0 4.608-3.68 7.652-7.85 7.652-4.172 0-7.852-2.962-7.852-7.652zm11.531 0c0-2.304-1.635-3.867-3.68-3.867-2.044 0-3.68 1.563-3.68 3.867 0 2.304 1.636 3.785 3.68 3.785 2.045.082 3.68-1.481 3.68-3.785z"/></g><g><path fill="#2c4358" d="M110.817 19.58c0 1.974-1.227 4.278-5.235 4.278H96.75V9.13h8.669c3.026 0 4.662 1.728 4.662 3.703 0 .987-.328 2.715-2.127 3.126 1.636.33 2.863 1.81 2.863 3.62zm-9.978-6.83v2.057h3.926c.736 0 1.145-.329 1.145-.987 0-.658-.41-1.07-1.227-1.07zm5.807 6.253c0-.658-.573-1.234-1.554-1.234h-4.253v2.386h4.253c.981 0 1.554-.493 1.554-1.152z"/></g><g><path fill="#2c4358" d="M129.22 23.865h-4.09v-1.81c-1.063 1.48-3.108 2.139-4.743 2.139-3.762 0-7.197-2.962-7.197-7.652 0-4.772 3.435-7.652 7.197-7.652 1.717 0 3.68.658 4.743 2.14V9.3h4.09zm-4.253-7.405c0-2.304-1.881-3.785-3.762-3.785a3.763 3.763 0 0 0-3.762 3.785 3.763 3.763 0 0 0 3.762 3.784c1.962.083 3.762-1.48 3.762-3.784z"/></g><g><path fill="#2c4358" d="M144.998 9.13v14.728h-4.17v-5.02h-.41l-3.435 5.02h-4.743l4.007-5.266c-2.535-.658-3.598-2.386-3.598-4.525 0-2.469 1.8-4.937 5.561-4.937zm-4.17 6.83v-3.045H138.7c-1.309 0-1.8.74-1.8 1.48 0 .741.491 1.564 1.882 1.564z"/></g><g><path fill="#2c4358" d="M73.356 33.818c0 3.538-2.127 7.076-7.034 7.076h-4.498v7.57H57.49V26.66h8.75c4.908 0 7.116 3.538 7.116 7.158zm-7.279-3.209h-4.334v6.418h4.252c2.127-.082 2.944-1.728 2.944-3.209 0-1.563-.817-3.209-2.862-3.209z"/></g><g><path fill="#2c4358" d="M90.204 33.73l-9.078 21.968H76.71l3.435-8.639L74.42 33.73h4.498l3.435 8.475 3.353-8.475z"/></g><g><path fill="#2c4358" d="M103.29 44.099c0 2.715-2.698 4.607-6.623 4.607-2.536 0-4.417-.823-5.807-2.468l2.617-2.057c.818.823 1.963 1.152 3.108 1.152 1.635 0 2.535-.905 2.535-1.728 0-.988-.9-1.646-2.453-1.646h-2.045v-2.55h1.472c1.554 0 2.208-.659 2.208-1.4 0-.74-.818-1.316-2.044-1.316-1.064 0-2.208.412-2.863 1.07l-2.126-2.386c1.472-1.234 3.19-2.057 5.643-2.057 3.108 0 5.561 1.646 5.561 4.278 0 1.07-.654 2.14-1.963 2.798 1.881.658 2.78 2.14 2.78 3.702z"/></g><g><path fill="#2c4358" d="M121.61 33.737v14.728h-4.09v-1.81c-1.063 1.48-3.108 2.139-4.743 2.139-3.762 0-7.197-2.962-7.197-7.652 0-4.772 3.435-7.652 7.197-7.652 1.717 0 3.68.658 4.743 2.14v-1.893zm-4.172 7.323c0-2.304-1.88-3.785-3.762-3.785a3.763 3.763 0 0 0-3.762 3.785 3.762 3.762 0 1 0 7.524 0z"/></g></g><g><g><path fill="#8dae3e" d="M60.842 64.996h-.572v-.905h-2.618v.905h-.572v-1.399h.082c.49 0 .736-.411.736-1.234V59.73h2.617v3.785h.327zm-2.372-2.633c0 .494-.081.905-.327 1.234h1.8v-3.291H58.47z"/></g><g><path fill="#8dae3e" d="M66.897 63.597v.494H64.28V59.73h2.535v.494h-1.963v1.48h1.718v.577h-1.718v1.316z"/></g><g><path fill="#8dae3e" d="M73.356 62.947c0 .658-.49 1.234-1.227 1.234H70.33V59.82h1.636c.736 0 1.145.411 1.145 1.152 0 .411-.164.74-.573.905.573.082.818.576.818 1.07zm-2.454-2.633v1.316h1.064c.409 0 .572-.247.572-.658 0-.411-.245-.658-.572-.658zm1.881 2.55c0-.411-.245-.74-.817-.74H70.82v1.48h1.145c.572 0 .817-.328.817-.74z"/></g><g><path fill="#8dae3e" d="M79.407 63.597v.494H76.79V59.73h2.535v.494h-1.963v1.48h1.718v.577h-1.718v1.316z"/></g><g><path fill="#8dae3e" d="M85.785 59.82v4.36h-.573v-3.784H83.74V62.7c0 1.07-.49 1.563-1.308 1.563h-.082v-.494h.082c.49 0 .736-.329.736-1.07v-2.797h2.617z"/></g><g><path fill="#8dae3e" d="M89.14 61.952c0-1.235.981-2.222 2.208-2.222 1.227 0 2.208.987 2.208 2.222a2.206 2.206 0 0 1-2.208 2.221 2.206 2.206 0 0 1-2.208-2.221zm3.844 0c0-.906-.736-1.728-1.636-1.728-.9 0-1.636.74-1.636 1.728 0 .905.737 1.727 1.636 1.727.9 0 1.636-.822 1.636-1.727z"/></g><g><path fill="#8dae3e" d="M100.18 59.82v4.36h-.573v-3.866h-2.045v3.867h-.572V59.82z"/></g><g><path fill="#8dae3e" d="M108.202 64.09l-.41-3.29-1.39 2.88h-.49l-1.39-2.88-.41 3.29h-.572l.49-4.36h.491l1.554 3.209 1.554-3.209h.49l.573 4.36z"/></g><g><path fill="#8dae3e" d="M114.827 63.597v.494h-2.617V59.73h2.535v.494h-1.963v1.48h1.718v.577h-1.718v1.316z"/></g><g><path fill="#8dae3e" d="M121.531 59.82v4.36h-.572v-1.892h-2.127v1.893h-.572V59.82h.572v1.892h2.127V59.82z"/></g><g><path fill="#8dae3e" d="M127.99 60.314h-1.309v3.784h-.572v-3.784H124.8v-.494h3.19v.494z"/></g></g><g><path fill="#8dae3e" d="M21.916 52.825c-3.026-.988-5.888-1.975-11.04-1.975-3.6 0-7.198.33-10.796 1.07v3.29c2.944-.41 6.624-.904 10.714-.904 5.643 0 8.914 1.07 12.022 2.057 3.107.987 6.051 1.974 11.449 1.974 3.844 0 7.442-.576 10.141-1.234v-3.291c-2.944.658-6.46 1.152-10.141 1.152-5.806 0-9.16-1.07-12.35-2.14z"/></g><g><path fill="#8dae3e" d="M22 43.032v3.29c3.189.988 6.46 2.058 12.267 2.058 3.762 0 7.36-.576 10.14-1.152v3.291c-2.862.658-6.378 1.234-10.14 1.234-5.398 0-8.342-.987-11.45-1.975-3.107-.987-6.379-2.056-12.022-2.056-3.516 0-7.197.41-10.795 1.07v-26.33L22 0l22.408 22.462v21.64c-2.699.657-6.297 1.233-10.141 1.233-5.398 0-8.342-.987-11.45-1.974a5.619 5.619 0 0 1-.818-.33zm-1.882-7.57h3.926V25.259h-3.926z"/></g><g><path fill="#8dae3e" d="M0 58.66v3.29c3.026-.575 6.706-1.069 10.795-1.069 5.152 0 8.015.905 11.04 1.893h.083V59.4c-2.863-.905-6.052-1.81-11.123-1.81-4.089 0-7.77.494-10.795 1.07z"/></g></g></g></g></svg>