<svg xmlns="http://www.w3.org/2000/svg" width="405" height="167" viewBox="0 0 405 167"><g><g><g/><g><g><g><path fill="#8daf3d" d="M405 86.112c-32.757 6.337-65.887 9.692-98.272 9.692-46.903 0-72.96-8.574-100.878-17.52C176.443 68.964 146.291 58.9 92.688 58.9 58.814 58.9 26.43 63.746 0 69.338v29.075C26.057 92.45 58.442 87.23 92.688 87.23c49.136 0 75.938 8.574 104.228 17.893 28.663 9.32 58.07 19.011 109.44 19.011 32.757 0 65.514-2.982 98.272-9.319V86.112z"/></g><g><path fill="#8daf3d" d="M0 39.513C24.568 33.922 57.698 28.33 92.688 28.33c49.136 0 75.938 8.574 104.228 17.893 28.663 9.32 58.07 19.011 109.44 19.011 37.224 0 70.726-4.1 98.272-9.319V26.84c-27.174 5.592-61.048 10.065-98.272 10.065-46.903 0-72.96-8.574-100.878-17.52C176.443 9.692 146.291 0 92.688 0 58.07 0 25.313 4.846 0 10.437z"/></g></g><g><path fill="#8daf3d" d="M0 157.683c24.568-5.591 57.698-11.183 92.688-11.183 49.136 0 75.938 8.574 104.228 17.893 2.234.746 4.467 1.491 7.073 2.237v-29.822c-28.663-9.319-58.814-18.638-111.3-18.638-34.62 0-67.004 4.846-92.689 10.438z"/></g></g></g></g></svg>