<svg width="58" height="80" viewBox="0 0 58 80" fill="none" xmlns="http://www.w3.org/2000/svg">
<path d="M43.7 74.1C36.8 74.1 33.1 72.9 29.1 71.6C25.3 70.4 21.3 69.1 14.4 69.1C10 69.1 5.5 69.5 1.1 70.3C0.8 70.4 0.6 70.3 0.4 70.1C0.1 69.9 0 69.7 0 69.4V65.3C0 64.9 0.3 64.5 0.7 64.4C5.3 63.5 9.9 63 14.4 63C20.9 63 24.6 64.2 28.5 65.4L28.2 66.3L28.5 65.4C32.4 66.7 36.5 68 43.7 68C47.6 68 51.8 67.5 56.1 66.6C56.4 66.5 56.6 66.6 56.9 66.8C57.1 67 57.2 67.2 57.2 67.5V71.6C57.2 72 56.9 72.4 56.5 72.5C52 73.6 47.7 74.1 43.7 74.1ZM14.4 67.3C21.6 67.3 25.7 68.6 29.7 69.9C33.5 71.1 37.1 72.3 43.7 72.3C47.4 72.3 51.3 71.9 55.4 71V68.7C51.3 69.5 47.4 69.9 43.7 69.9C36.2 69.9 32 68.5 27.9 67.2C24.2 66 20.7 64.8 14.4 64.8C10.3 64.8 6 65.2 1.8 66V68.3C6 67.6 10.2 67.3 14.4 67.3Z" fill="#8DAE3E"/>
<path d="M43.7 66C36.8 66 33.1 64.8 29.1 63.5C25.2 62.3 21.3 61 14.4 61C10 61 5.5 61.4 1.1 62.3C0.8 62.3 0.6 62.3 0.4 62.1C0.1 61.9 0 61.6 0 61.4V28.7C0 28.5 0.1 28.2 0.3 28.1L27.7 0.3C27.9 0.1 28.1 0 28.3 0C28.5 0 28.8 0.1 28.9 0.3L56.8 28.1C57 28.3 57.1 28.5 57.1 28.7V55.5C57.1 55.9 56.8 56.3 56.4 56.4C51.9 57.4 47.6 57.9 43.6 57.9C36.9 57.9 33.1 56.7 29.3 55.5V57.7C32.8 58.8 36.8 60 43.6 60C47.5 60 51.7 59.5 56 58.6C56.3 58.5 56.5 58.6 56.8 58.8C57.1 59 57.1 59.2 57.1 59.5V63.6C57.1 64 56.8 64.4 56.4 64.5C52 65.5 47.7 66 43.7 66ZM14.4 59.2C21.6 59.2 25.7 60.5 29.7 61.8C33.5 63 37.1 64.2 43.7 64.2C47.4 64.2 51.3 63.8 55.4 62.9V60.6C51.3 61.4 47.4 61.8 43.7 61.8C36.2 61.8 32 60.4 28.2 59.2C27.8 59.1 27.6 58.7 27.6 58.3V54.2C27.6 53.9 27.7 53.6 28 53.5C28.2 53.3 28.5 53.3 28.8 53.4L29.8 53.7C33.6 54.9 37.2 56.1 43.8 56.1C47.5 56.1 51.4 55.7 55.5 54.8V29.1L28.5 2.2L1.8 29.1V60.3C6 59.5 10.2 59.2 14.4 59.2ZM30.9 45.8H26C25.5 45.8 25.1 45.4 25.1 44.9V32.2C25.1 31.7 25.5 31.3 26 31.3H30.9C31.4 31.3 31.8 31.7 31.8 32.2V44.9C31.8 45.4 31.4 45.8 30.9 45.8ZM26.9 44H30V33.1H26.9V44Z" fill="#8DAE3E"/>
<path d="M28.2 79.6C28.1 79.6 28 79.6 27.9 79.6H27.8C24.1 78.4 20.6 77.3 14.3 77.3C9.9 77.3 5.5 77.7 1 78.6C0.7 78.7 0.5 78.6 0.3 78.4C0.1 78.1 0 77.9 0 77.6V73.5C0 73.1 0.3 72.7 0.7 72.6C5.2 71.8 9.8 71.3 14.3 71.3C20.8 71.3 24.9 72.4 28.4 73.6C28.8 73.7 29 74.1 29 74.5V78.7C29 79 28.9 79.3 28.6 79.4C28.6 79.5 28.4 79.6 28.2 79.6ZM14.4 75.3C20.3 75.3 23.9 76.3 27.4 77.4V75.1C24.1 74.1 20.3 73.1 14.4 73.1C10.2 73.1 6 73.5 1.8 74.2V76.4C6 75.7 10.2 75.3 14.4 75.3Z" fill="#8DAE3E"/>
</svg>
