<svg width="80" height="80" viewBox="0 0 80 80" fill="none" xmlns="http://www.w3.org/2000/svg">
<g clip-path="url(#clip0)">
<path d="M45.8999 11.7H78.9999V45.2L39.9999 6.10002L0.899902 45.2V11.7H16.9999V0.900024H23.3999V11.7H33.8999" stroke="#8DAE3E" stroke-width="1.8" stroke-miterlimit="10" stroke-linecap="round" stroke-linejoin="round"/>
<path d="M40.1001 30.9C42.5854 30.9 44.6001 28.8853 44.6001 26.4C44.6001 23.9147 42.5854 21.9 40.1001 21.9C37.6148 21.9 35.6001 23.9147 35.6001 26.4C35.6001 28.8853 37.6148 30.9 40.1001 30.9Z" stroke="#8DAE3E" stroke-width="1.8" stroke-miterlimit="10" stroke-linecap="round" stroke-linejoin="round"/>
<path d="M73.9001 40.1V78.8H6.1001V40.1" stroke="#8DAE3E" stroke-width="1.8" stroke-miterlimit="10" stroke-linecap="round" stroke-linejoin="round"/>
<path d="M28 78.8V73.3H52.7V78.8" stroke="#8DAE3E" stroke-width="1.8" stroke-miterlimit="10" stroke-linecap="round" stroke-linejoin="round"/>
<path d="M14.7998 62V46.5H25.5998V62" stroke="#8DAE3E" stroke-width="1.8" stroke-miterlimit="10" stroke-linecap="round" stroke-linejoin="round"/>
<path d="M15 54.5H25.5" stroke="#8DAE3E" stroke-width="1.8" stroke-miterlimit="10" stroke-linecap="round" stroke-linejoin="round"/>
<path d="M10.8999 62.5H29.3999" stroke="#8DAE3E" stroke-width="1.8" stroke-miterlimit="10" stroke-linecap="round" stroke-linejoin="round"/>
<path d="M55 62V46.5H65.9V62" stroke="#8DAE3E" stroke-width="1.8" stroke-miterlimit="10" stroke-linecap="round" stroke-linejoin="round"/>
<path d="M55.1997 54.5H65.6997" stroke="#8DAE3E" stroke-width="1.8" stroke-miterlimit="10" stroke-linecap="round" stroke-linejoin="round"/>
<path d="M51.1001 62.5H69.6001" stroke="#8DAE3E" stroke-width="1.8" stroke-miterlimit="10" stroke-linecap="round" stroke-linejoin="round"/>
<path d="M33.5 73.3001V46.8H47.5V73.3001" stroke="#8DAE3E" stroke-width="1.8" stroke-miterlimit="10" stroke-linecap="round" stroke-linejoin="round"/>
<path d="M44 60.1H46.9" stroke="#8DAE3E" stroke-width="1.8" stroke-miterlimit="10" stroke-linecap="round" stroke-linejoin="round"/>
</g>
<defs>
<clipPath id="clip0">
<rect width="79.9" height="79.7" fill="white"/>
</clipPath>
</defs>
</svg>
