<svg width="81" height="84" viewBox="0 0 81 84" fill="none" xmlns="http://www.w3.org/2000/svg">
<g clip-path="url(#clip0)">
<path d="M18.2997 82.1C18.2997 82.1 23.9997 64.9 44.0997 54C61.9997 44.3 79.4997 45.1 79.4997 45.1V82.2H1.19971V50.1C1.19971 50.1 9.89971 49.6 19.5997 52.4C29.2997 55.2 34.6997 58.9 34.6997 58.9" stroke="#8DAE3E" stroke-width="1.8" stroke-miterlimit="10" stroke-linecap="round" stroke-linejoin="round"/>
<path d="M2.5 58.6C2.5 58.6 17.1 58.5001 27.5 65.8001" stroke="#8DAE3E" stroke-width="1.8" stroke-miterlimit="10" stroke-linecap="round" stroke-linejoin="round"/>
<path d="M32.1001 82.2001C32.1001 82.2001 42.5001 56.7001 79.3001 55.7001" stroke="#8DAE3E" stroke-width="1.8" stroke-miterlimit="10" stroke-linecap="round" stroke-linejoin="round"/>
<path d="M46.5 82C46.5 82 54.5 66.8 79.1 66.3" stroke="#8DAE3E" stroke-width="1.8" stroke-miterlimit="10" stroke-linecap="round" stroke-linejoin="round"/>
<path d="M0.899902 67.7C0.899902 67.7 13.4999 67.6 22.3999 74.3" stroke="#8DAE3E" stroke-width="1.8" stroke-miterlimit="10" stroke-linecap="round" stroke-linejoin="round"/>
<path d="M28.4999 35.9001C34.078 35.9001 38.5999 31.3781 38.5999 25.8001C38.5999 20.222 34.078 15.7001 28.4999 15.7001C22.9218 15.7001 18.3999 20.222 18.3999 25.8001C18.3999 31.3781 22.9218 35.9001 28.4999 35.9001Z" stroke="#8DAE3E" stroke-width="1.8" stroke-miterlimit="10" stroke-linecap="round" stroke-linejoin="round"/>
<path d="M28.3999 0.900024V9.20002" stroke="#8DAE3E" stroke-width="1.8" stroke-miterlimit="10" stroke-linecap="round" stroke-linejoin="round"/>
<path d="M28.3999 42.1V50.4" stroke="#8DAE3E" stroke-width="1.8" stroke-miterlimit="10" stroke-linecap="round" stroke-linejoin="round"/>
<path d="M53.0999 25.6H44.8999" stroke="#8DAE3E" stroke-width="1.8" stroke-miterlimit="10" stroke-linecap="round" stroke-linejoin="round"/>
<path d="M11.9001 25.6H3.6001" stroke="#8DAE3E" stroke-width="1.8" stroke-miterlimit="10" stroke-linecap="round" stroke-linejoin="round"/>
<path d="M43.7 10.3L40 14" stroke="#8DAE3E" stroke-width="1.8" stroke-miterlimit="10" stroke-linecap="round" stroke-linejoin="round"/>
<path d="M16.7001 37.3L13.1001 41" stroke="#8DAE3E" stroke-width="1.8" stroke-miterlimit="10" stroke-linecap="round" stroke-linejoin="round"/>
<path d="M43.7 41L40 37.3" stroke="#8DAE3E" stroke-width="1.8" stroke-miterlimit="10" stroke-linecap="round" stroke-linejoin="round"/>
<path d="M16.7001 14L13.1001 10.3" stroke="#8DAE3E" stroke-width="1.8" stroke-miterlimit="10" stroke-linecap="round" stroke-linejoin="round"/>
</g>
<defs>
<clipPath id="clip0">
<rect width="80.5" height="83.1" fill="white"/>
</clipPath>
</defs>
</svg>
